<svg xmlns="http://www.w3.org/2000/svg" width="24" height="22" fill-rule="evenodd" clip-rule="evenodd"><rect id="backgroundrect" width="100%" height="100%" x="0" y="0" fill="none" stroke="none"/><g class="currentLayer" style=""><title>Layer 1</title><path d="M12,20.59299976158142 c-5.63,-5.539 -11,-10.297 -11,-14.402 c0,-3.791 3.068,-5.191 5.281,-5.191 c1.312,0 4.151,0.501 5.719,4.457 c1.59,-3.968 4.464,-4.447 5.726,-4.447 c2.54,0 5.274,1.621 5.274,5.181 c0,4.069 -5.136,8.625 -11,14.402 m5.726,-20.583 c-2.203,0 -4.446,1.042 -5.726,3.238 c-1.2850000000000001,-2.206 -3.5220000000000002,-3.248 -5.719,-3.248 c-3.183,0 -6.281,2.187 -6.281,6.191 c0,4.6610000000000005 5.571,9.429 12,15.809 c6.43,-6.38 12,-11.148 12,-15.809 c0,-4.011 -3.095,-6.181 -6.274,-6.181 " id="svg_1" class="selected"/><polyline fill="#000000" stroke="#000000" stroke-dashoffset="" fill-rule="nonzero" marker-start="" marker-mid="" marker-end="" id="svg_2" points="11.999998372874977,5.247069708435687 11.999998372874977,5.247069708435687 11.999998372874977,5.247069708435687 12.050527397756198,5.196540683554463 12.101056422637424,5.14601165867324 12.101056422637424,5.14601165867324 12.101056422637424,5.14601165867324 12.101056422637424,5.095482633792017 12.151585447518645,5.095482633792017 12.151585447518645,5.044953608910793 12.151585447518645,5.044953608910793 12.20211447239987,5.044953608910793 12.20211447239987,4.99442458402957 12.20211447239987,4.99442458402957 12.20211447239987,4.943895559148347 12.252643497281092,4.943895559148347 12.252643497281092,4.943895559148347 12.303172522162317,4.943895559148347 12.303172522162317,4.893366534267123 12.303172522162317,4.943895559148347 12.303172522162317,4.943895559148347 12.303172522162317,4.99442458402957 12.303172522162317,5.044953608910793 12.303172522162317,5.044953608910793 12.252643497281092,5.044953608910793 12.252643497281092,5.095482633792017 12.20211447239987,5.095482633792017 12.20211447239987,5.14601165867324 12.20211447239987,5.14601165867324 12.151585447518645,5.14601165867324 12.101056422637424,5.14601165867324 12.101056422637424,5.196540683554463 12.101056422637424,5.196540683554463 12.050527397756198,5.196540683554463 12.050527397756198,5.247069708435687 11.999998372874977,5.247069708435687 11.999998372874977,5.247069708435687 11.999998372874977,5.247069708435687 11.999998372874977,5.297598733316908 11.999998372874977,5.348127758198132 11.999998372874977,5.348127758198132 11.999998372874977,5.398656783079355 11.999998372874977,5.449185807960578 11.999998372874977,5.499714832841802 11.999998372874977,5.550243857723025 11.999998372874977,5.550243857723025 11.999998372874977,5.550243857723025 11.999998372874977,5.651301907485472 12.050527397756198,5.651301907485472 12.101056422637424,5.701830932366695 12.101056422637424,5.7523599572479185 12.101056422637424,5.7523599572479185 12.101056422637424,5.7523599572479185 12.151585447518645,5.7523599572479185 12.151585447518645,5.7523599572479185 12.151585447518645,5.701830932366695 12.151585447518645,5.651301907485472 12.20211447239987,5.651301907485472 12.20211447239987,5.651301907485472 12.20211447239987,5.600772882604248 12.20211447239987,5.550243857723025 12.252643497281092,5.550243857723025 12.252643497281092,5.499714832841802 12.252643497281092,5.449185807960578 12.252643497281092,5.449185807960578 12.252643497281092,5.398656783079355 12.252643497281092,5.348127758198132 12.252643497281092,5.348127758198132 12.252643497281092,5.297598733316908 12.252643497281092,5.247069708435687 12.252643497281092,5.247069708435687 12.252643497281092,5.196540683554463 12.252643497281092,5.14601165867324 12.303172522162317,5.14601165867324 12.303172522162317,5.14601165867324 12.303172522162317,5.095482633792017 12.303172522162317,5.044953608910793 12.353701547043539,5.044953608910793 12.353701547043539,4.99442458402957 12.40423057192476,4.99442458402957 12.40423057192476,4.943895559148347 12.454759596805985,4.943895559148347 12.505288621687207,4.943895559148347 12.505288621687207,4.893366534267123 12.505288621687207,4.893366534267123 12.505288621687207,4.8428375093859 12.555817646568432,4.8428375093859 12.555817646568432,4.8428375093859 12.606346671449653,4.8428375093859 12.606346671449653,4.792308484504677 12.606346671449653,4.741779459623453 12.606346671449653,4.741779459623453 12.606346671449653,4.741779459623453 12.606346671449653,4.69125043474223 12.606346671449653,4.640721409861007 12.606346671449653,4.640721409861007 12.656875696330879,4.640721409861007 12.656875696330879,4.590192384979783 12.656875696330879,4.53966336009856 12.656875696330879,4.53966336009856 12.656875696330879,4.489134335217338 12.656875696330879,4.438605310336115 12.7074047212121,4.438605310336115 12.7074047212121,4.438605310336115 12.7074047212121,4.388076285454892 12.7074047212121,4.337547260573668 12.7074047212121,4.337547260573668 12.757933746093325,4.337547260573668 12.757933746093325,4.287018235692445 12.757933746093325,4.2364892108112215 12.808462770974547,4.2364892108112215 12.808462770974547,4.2364892108112215 12.808462770974547,4.185960185929998 12.808462770974547,4.185960185929998 12.808462770974547,4.135431161048775 12.808462770974547,4.135431161048775 12.858991795855772,4.135431161048775 12.909520820736994,4.0849021361675515 12.909520820736994,4.034373111286328 12.909520820736994,4.034373111286328 12.909520820736994,3.983844086405105 12.960049845618219,3.983844086405105 12.960049845618219,3.9333150615238814 12.960049845618219,3.9333150615238814 13.01057887049944,3.9333150615238814 13.01057887049944,3.8827860366426576 13.01057887049944,3.8322570117614343 13.01057887049944,3.8322570117614343 13.01057887049944,3.8322570117614343 13.061107895380664,3.781727986880212 13.111636920261889,3.781727986880212 13.111636920261889,3.73119896199899 13.111636920261889,3.73119896199899 13.111636920261889,3.73119896199899 13.111636920261889,3.6806699371177665 13.111636920261889,3.6301409122365427 13.16216594514311,3.6301409122365427 13.212694970024334,3.57961188735532 13.212694970024334,3.57961188735532 13.212694970024334,3.529082862474097 13.212694970024334,3.529082862474097 13.263223994905555,3.529082862474097 13.313753019786779,3.478553837592873 13.313753019786779,3.478553837592873 13.313753019786779,3.4280248127116497 13.364282044668004,3.4280248127116497 13.364282044668004,3.4280248127116497 13.414811069549227,3.4280248127116497 13.414811069549227,3.3774957878304264 13.414811069549227,3.3774957878304264 13.465340094430449,3.326966762949203 13.515869119311672,3.326966762949203 13.515869119311672,3.326966762949203 13.566398144192894,3.326966762949203 13.566398144192894,3.2764377380679797 13.61692716907412,3.2764377380679797 13.61692716907412,3.2259087131867563 13.61692716907412,3.2259087131867563 13.667456193955342,3.2259087131867563 13.667456193955342,3.175379688305533 13.717985218836567,3.1248506634243096 13.717985218836567,3.1248506634243096 13.717985218836567,3.1248506634243096 13.768514243717787,3.0743216385430863 13.768514243717787,3.023792613661863 13.819043268599016,3.023792613661863 13.819043268599016,3.023792613661863 13.869572293480235,2.9732635887806413 13.869572293480235,2.922734563899418 13.920101318361457,2.922734563899418 13.920101318361457,2.922734563899418 13.920101318361457,2.8722055390181946 13.920101318361457,2.8722055390181946 13.970630343242682,2.8722055390181946 14.021159368123902,2.8216765141369713 14.021159368123902,2.771147489255748 14.07168839300513,2.7206184643745246 14.12221741788635,2.7206184643745246 14.12221741788635,2.6700894394933012 14.12221741788635,2.619560414612078 14.172746442767576,2.619560414612078 14.172746442767576,2.619560414612078 14.223275467648797,2.5690313897308545 14.223275467648797,2.518502364849631 14.223275467648797,2.518502364849631 14.273804492530024,2.518502364849631 14.273804492530024,2.467973339968408 14.324333517411246,2.467973339968408 14.324333517411246,2.467973339968408 14.374862542292469,2.467973339968408 14.374862542292469,2.4174443150871845 14.42539156717369,2.4174443150871845 14.42539156717369,2.4174443150871845 14.42539156717369,2.4174443150871845 14.475920592054914,2.366915290205961 14.526449616936139,2.366915290205961 14.526449616936139,2.366915290205961 14.576978641817362,2.366915290205961 14.627507666698584,2.316386265324738 14.627507666698584,2.316386265324738 14.627507666698584,2.316386265324738 14.678036691579806,2.316386265324738 14.728565716461029,2.316386265324738 14.728565716461029,2.316386265324738 14.779094741342254,2.2658572404435144 14.829623766223477,2.215328215562293 14.829623766223477,2.215328215562293 14.880152791104699,2.215328215562293 14.930681815985922,2.215328215562293 14.930681815985922,2.215328215562293 14.981210840867144,2.215328215562293 15.03173986574837,2.215328215562293 15.03173986574837,2.215328215562293 15.082268890629592,2.1647991906810695 15.132797915510817,2.1647991906810695 15.132797915510817,2.114270165799846 15.183326940392039,2.114270165799846 15.233855965273266,2.114270165799846 15.233855965273266,2.114270165799846 15.233855965273266,2.114270165799846 15.284384990154486,2.114270165799846 15.33491401503571,2.114270165799846 15.33491401503571,2.063741140918623 15.33491401503571,2.063741140918623 15.435972064798154,2.063741140918623 15.435972064798154,2.063741140918623 15.48650108967938,2.0132121160373995 15.5370301145606,2.0132121160373995 15.5370301145606,2.0132121160373995 15.587559139441826,2.0132121160373995 15.587559139441826,2.0132121160373995 15.638088164323047,2.0132121160373995 15.638088164323047,2.0132121160373995 15.688617189204274,1.9626830911561761 15.739146214085496,1.9626830911561761 15.739146214085496,1.9626830911561761 15.78967523896672,1.9626830911561761 15.84020426384794,1.9626830911561761 15.84020426384794,1.9121540662749525 15.84020426384794,1.9121540662749525 15.890733288729164,1.9121540662749525 15.94126231361039,1.9121540662749525 15.94126231361039,1.9121540662749525 15.991791338491613,1.9121540662749525 16.042320363372834,1.9121540662749525 16.042320363372834,1.8616250413937296 16.042320363372834,1.8616250413937296 16.09284938825406,1.811096016512506 16.14337841313528,1.811096016512506 16.14337841313528,1.811096016512506 16.14337841313528,1.811096016512506 16.193907438016502,1.811096016512506 16.244436462897728,1.811096016512506 16.244436462897728,1.811096016512506 16.29496548777895,1.811096016512506 16.34549451266017,1.7605669916312827 16.34549451266017,1.7605669916312827 16.3960235375414,1.7605669916312827 16.3960235375414,1.7100379667500591 16.44655256242262,1.7100379667500591 16.44655256242262,1.7100379667500591 16.497081587303843,1.7100379667500591 16.547610612185064,1.7100379667500591 16.547610612185064,1.7100379667500591 16.547610612185064,1.7100379667500591 16.598139637066293,1.7100379667500591 16.598139637066293,1.6595089418688362 16.648668661947514,1.6595089418688362 16.598139637066293,1.6595089418688362 16.547610612185064,1.6595089418688362 16.547610612185064,1.6595089418688362 16.497081587303843,1.6595089418688362 16.44655256242262,1.6595089418688362 16.44655256242262,1.6595089418688362 16.3960235375414,1.6595089418688362 16.34549451266017,1.6595089418688362 16.29496548777895,1.6595089418688362 16.244436462897728,1.7100379667500591 16.193907438016502,1.7100379667500591 16.14337841313528,1.7100379667500591 16.14337841313528,1.7100379667500591 16.09284938825406,1.7100379667500591 16.042320363372834,1.7100379667500591 16.042320363372834,1.7100379667500591 15.991791338491613,1.7100379667500591 15.94126231361039,1.7100379667500591 15.94126231361039,1.7605669916312827 15.94126231361039,1.7605669916312827 15.890733288729164,1.7605669916312827 15.84020426384794,1.7605669916312827 15.84020426384794,1.7605669916312827 15.78967523896672,1.7605669916312827 15.739146214085496,1.7605669916312827 15.739146214085496,1.7605669916312827 15.688617189204274,1.7605669916312827 15.739146214085496,1.7605669916312827 15.739146214085496,1.7605669916312827 15.78967523896672,1.7605669916312827 15.84020426384794,1.7605669916312827 15.84020426384794,1.7100379667500591 15.890733288729164,1.7100379667500591 15.94126231361039,1.7100379667500591 15.94126231361039,1.7100379667500591 15.991791338491613,1.7100379667500591 15.991791338491613,1.6595089418688362 16.042320363372834,1.6595089418688362 16.042320363372834,1.6595089418688362 16.09284938825406,1.6089799169876127 16.14337841313528,1.6089799169876127 16.14337841313528,1.6089799169876127 16.193907438016502,1.6089799169876127 16.244436462897728,1.6089799169876127 16.244436462897728,1.6089799169876127 16.244436462897728,1.5584508921063893 16.29496548777895,1.5584508921063893 16.34549451266017,1.5584508921063893 16.34549451266017,1.5584508921063893 16.3960235375414,1.5584508921063893 16.44655256242262,1.507921867225166 16.44655256242262,1.507921867225166 16.497081587303843,1.507921867225166 16.547610612185064,1.507921867225166 16.547610612185064,1.507921867225166 16.598139637066293,1.507921867225166 16.648668661947514,1.507921867225166 16.648668661947514,1.4573928423439444 16.699197686828736,1.406863817462721 16.749726711709958,1.406863817462721 16.749726711709958,1.406863817462721 16.850784761472408,1.406863817462721 16.850784761472408,1.406863817462721 16.90131378635363,1.406863817462721 16.95184281123485,1.406863817462721 16.95184281123485,1.406863817462721 17.002371836116073,1.406863817462721 17.0529008609973,1.406863817462721 17.0529008609973,1.406863817462721 17.103429885878523,1.406863817462721 17.153958910759744,1.406863817462721 17.153958910759744,1.406863817462721 17.204487935640966,1.406863817462721 17.255016960522195,1.406863817462721 17.255016960522195,1.406863817462721 17.305545985403416,1.406863817462721 17.356075010284638,1.406863817462721 17.356075010284638,1.406863817462721 17.40660403516586,1.406863817462721 17.457133060047088,1.406863817462721 17.457133060047088,1.406863817462721 17.50766208492831,1.406863817462721 17.55819110980953,1.406863817462721 17.55819110980953,1.406863817462721 17.608720134690753,1.406863817462721 17.65924915957198,1.406863817462721 17.65924915957198,1.406863817462721 17.709778184453203,1.406863817462721 17.760307209334425,1.406863817462721 17.760307209334425,1.406863817462721 17.810836234215646,1.406863817462721 17.861365259096868,1.406863817462721 17.861365259096868,1.406863817462721 17.911894283978096,1.406863817462721 17.962423308859318,1.406863817462721 17.962423308859318,1.406863817462721 18.01295233374054,1.406863817462721 18.06348135862176,1.406863817462721 18.06348135862176,1.406863817462721 18.11401038350299,1.406863817462721 18.16453940838421,1.406863817462721 18.16453940838421,1.406863817462721 18.215068433265433,1.406863817462721 18.265597458146654,1.406863817462721 18.265597458146654,1.406863817462721 18.316126483027883,1.406863817462721 18.366655507909105,1.406863817462721 18.366655507909105,1.406863817462721 18.417184532790326,1.406863817462721 18.467713557671548,1.406863817462721 18.51824258255277,1.406863817462721 18.568771607433998,1.406863817462721 18.568771607433998,1.406863817462721 18.61930063231522,1.406863817462721 18.66982965719644,1.406863817462721 18.66982965719644,1.406863817462721 18.66982965719644,1.406863817462721 18.720358682077663,1.406863817462721 18.77088770695889,1.406863817462721 18.77088770695889,1.4573928423439444 18.821416731840113,1.4573928423439444 18.871945756721335,1.4573928423439444 18.871945756721335,1.4573928423439444 18.871945756721335,1.507921867225166 18.922474781602556,1.507921867225166 18.973003806483785,1.507921867225166 18.973003806483785,1.507921867225166 19.074061856246228,1.507921867225166 19.074061856246228,1.507921867225166 19.12459088112745,1.5584508921063893 19.17511990600868,1.5584508921063893 19.17511990600868,1.6089799169876127 19.2256489308899,1.6089799169876127 19.27617795577112,1.6089799169876127 19.27617795577112,1.6089799169876127 19.326706980652343,1.6089799169876127 19.326706980652343,1.6089799169876127 19.377236005533565,1.6089799169876127 19.377236005533565,1.6089799169876127 19.377236005533565,1.6595089418688362 19.427765030414793,1.6595089418688362 19.478294055296015,1.6595089418688362 19.478294055296015,1.6595089418688362 19.478294055296015,1.7100379667500591 19.528823080177236,1.7100379667500591 19.528823080177236,1.7100379667500591 19.579352105058458,1.7100379667500591 19.579352105058458,1.7100379667500591 19.629881129939687,1.7605669916312827 19.68041015482091,1.7605669916312827 19.68041015482091,1.7605669916312827 19.68041015482091,1.811096016512506 19.73093917970213,1.811096016512506 19.78146820458335,1.811096016512506 19.78146820458335,1.811096016512506 19.78146820458335,1.811096016512506 19.78146820458335,1.8616250413937296 19.83199722946458,1.8616250413937296 19.8825262543458,1.8616250413937296 19.8825262543458,1.8616250413937296 19.8825262543458,1.9121540662749525 19.933055279227023,1.9121540662749525 19.983584304108245,1.9121540662749525 19.983584304108245,1.9626830911561761 19.983584304108245,2.0132121160373995 19.983584304108245,2.0132121160373995 20.034113328989466,2.0132121160373995 20.084642353870695,2.0132121160373995 20.084642353870695,2.0132121160373995 20.084642353870695,2.063741140918623 20.084642353870695,2.063741140918623 20.084642353870695,2.114270165799846 20.135171378751917,2.114270165799846 20.135171378751917,2.114270165799846 20.185700403633138,2.114270165799846 20.185700403633138,2.114270165799846 20.185700403633138,2.1647991906810695 20.23622942851436,2.1647991906810695 20.23622942851436,2.215328215562293 20.28675845339559,2.215328215562293 20.28675845339559,2.2658572404435144 20.33728747827681,2.2658572404435144 20.33728747827681,2.316386265324738 20.38781650315803,2.316386265324738 20.38781650315803,2.316386265324738 20.38781650315803,2.316386265324738 20.438345528039253,2.316386265324738 20.488874552920482,2.316386265324738 20.488874552920482,2.366915290205961 20.488874552920482,2.4174443150871845 20.488874552920482,2.4174443150871845 20.488874552920482,2.4174443150871845 20.539403577801703,2.4174443150871845 20.539403577801703,2.467973339968408 20.589932602682925,2.518502364849631 20.589932602682925,2.518502364849631 20.640461627564147,2.518502364849631 20.640461627564147,2.5690313897308545 20.690990652445375,2.619560414612078 20.690990652445375,2.619560414612078 20.741519677326597,2.619560414612078 20.79204870220782,2.619560414612078 20.79204870220782,2.6700894394933012 20.89310675197026,2.7206184643745246 20.89310675197026,2.7206184643745246 20.94363577685149,2.7206184643745246 20.994164801732712,2.771147489255748 20.994164801732712,2.771147489255748 21.044693826613933,2.8216765141369713 21.044693826613933,2.8216765141369713 21.095222851495155,2.8216765141369713 21.095222851495155,2.8216765141369713 21.145751876376384,2.8722055390181946 21.196280901257605,2.922734563899418 21.196280901257605,2.922734563899418 21.246809926138827,2.922734563899418 21.246809926138827,2.922734563899418 21.29733895102005,2.9732635887806413 21.29733895102005,2.9732635887806413 21.29733895102005,3.023792613661863 21.347867975901277,3.023792613661863 21.347867975901277,3.023792613661863 21.3983970007825,3.023792613661863 21.3983970007825,3.0743216385430863 21.3983970007825,3.1248506634243096 21.44892602566372,3.1248506634243096 21.44892602566372,3.1248506634243096 21.44892602566372,3.175379688305533 21.49945505054494,3.175379688305533 21.49945505054494,3.2259087131867563 21.49945505054494,3.2259087131867563 21.549984075426163,3.2259087131867563 21.549984075426163,3.2764377380679797 21.600513100307392,3.326966762949203 21.600513100307392,3.326966762949203 21.600513100307392,3.326966762949203 21.600513100307392,3.3774957878304264 21.600513100307392,3.4280248127116497 21.651042125188614,3.4280248127116497 21.651042125188614,3.4280248127116497 21.701571150069835,3.478553837592873 21.701571150069835,3.529082862474097 21.752100174951057,3.529082862474097 21.752100174951057,3.57961188735532 21.802629199832285,3.57961188735532 21.802629199832285,3.6301409122365427 21.802629199832285,3.6301409122365427 21.802629199832285,3.6806699371177665 21.853158224713507,3.6806699371177665 21.90368724959473,3.6806699371177665 21.90368724959473,3.6301409122365427 21.90368724959473,3.6301409122365427 21.90368724959473,3.57961188735532 21.90368724959473,3.529082862474097 21.90368724959473,3.529082862474097 21.90368724959473,3.478553837592873 21.90368724959473,3.4280248127116497 21.853158224713507,3.4280248127116497 21.802629199832285,3.326966762949203 21.802629199832285,3.326966762949203 21.802629199832285,3.2764377380679797 21.752100174951057,3.2259087131867563 21.701571150069835,3.2259087131867563 21.651042125188614,3.175379688305533 21.651042125188614,3.1248506634243096 21.600513100307392,3.1248506634243096 21.600513100307392,3.1248506634243096 21.600513100307392,3.0743216385430863 21.549984075426163,3.0743216385430863 21.549984075426163,3.023792613661863 21.49945505054494,3.023792613661863 21.49945505054494,3.023792613661863 21.49945505054494,3.023792613661863 21.49945505054494,2.9732635887806413 21.44892602566372,2.9732635887806413 21.3983970007825,2.922734563899418 21.3983970007825,2.922734563899418 21.347867975901277,2.922734563899418 21.29733895102005,2.922734563899418 21.29733895102005,2.8722055390181946 21.29733895102005,2.8722055390181946 21.246809926138827,2.8722055390181946 21.246809926138827,2.8216765141369713 21.196280901257605,2.8216765141369713 21.196280901257605,2.8216765141369713 21.145751876376384,2.771147489255748 21.095222851495155,2.771147489255748 21.095222851495155,2.7206184643745246 21.044693826613933,2.7206184643745246 21.044693826613933,2.6700894394933012 20.994164801732712,2.6700894394933012 20.994164801732712,2.619560414612078 20.994164801732712,2.619560414612078 20.994164801732712,2.619560414612078 20.94363577685149,2.619560414612078 20.94363577685149,2.5690313897308545 20.94363577685149,2.518502364849631 20.94363577685149,2.5690313897308545 20.94363577685149,2.619560414612078 20.994164801732712,2.619560414612078 20.994164801732712,2.619560414612078 21.044693826613933,2.619560414612078 21.095222851495155,2.619560414612078 21.095222851495155,2.619560414612078 21.145751876376384,2.6700894394933012 21.196280901257605,2.6700894394933012 21.196280901257605,2.7206184643745246 21.29733895102005,2.7206184643745246 21.29733895102005,2.7206184643745246 21.3983970007825,2.771147489255748 21.3983970007825,2.8216765141369713 21.44892602566372,2.8216765141369713 21.49945505054494,2.8722055390181946 21.49945505054494,2.8722055390181946 21.549984075426163,2.922734563899418 21.600513100307392,2.922734563899418 21.651042125188614,3.023792613661863 21.701571150069835,3.023792613661863 21.701571150069835,3.023792613661863 21.802629199832285,3.0743216385430863 21.802629199832285,3.1248506634243096 21.853158224713507,3.1248506634243096 21.853158224713507,3.175379688305533 21.90368724959473,3.175379688305533 21.90368724959473,3.2259087131867563 21.90368724959473,3.2259087131867563 21.90368724959473,3.2259087131867563 21.90368724959473,3.2764377380679797 21.90368724959473,3.326966762949203 21.90368724959473,3.326966762949203 21.95421627447595,3.3774957878304264 21.95421627447595,3.4280248127116497 21.95421627447595,3.4280248127116497 21.95421627447595,3.478553837592873 21.95421627447595,3.529082862474097 21.95421627447595,3.529082862474097 21.95421627447595,3.57961188735532 22.00474529935718,3.57961188735532 22.00474529935718,3.6301409122365427 22.00474529935718,3.6301409122365427 22.00474529935718,3.6806699371177665 22.00474529935718,3.6806699371177665 22.00474529935718,3.73119896199899 22.0552743242384,3.73119896199899 22.0552743242384,3.781727986880212 22.105803349119622,3.8322570117614343 22.105803349119622,3.8322570117614343 22.105803349119622,3.8322570117614343 22.105803349119622,3.8827860366426576 22.105803349119622,3.9333150615238814 22.156332374000844,3.9333150615238814 22.206861398882072,3.9333150615238814 22.206861398882072,3.983844086405105 22.206861398882072,4.034373111286328 22.206861398882072,4.034373111286328 22.257390423763294,4.0849021361675515 22.257390423763294,4.135431161048775 22.307919448644515,4.135431161048775 22.307919448644515,4.135431161048775 22.307919448644515,4.185960185929998 22.307919448644515,4.2364892108112215 22.358448473525737,4.2364892108112215 22.358448473525737,4.287018235692445 22.40897749840696,4.337547260573668 22.40897749840696,4.337547260573668 22.40897749840696,4.388076285454892 22.40897749840696,4.438605310336115 22.40897749840696,4.438605310336115 22.40897749840696,4.489134335217338 22.459506523288187,4.489134335217338 22.459506523288187,4.53966336009856 22.459506523288187,4.53966336009856 22.51003554816941,4.590192384979783 22.51003554816941,4.640721409861007 22.51003554816941,4.640721409861007 22.51003554816941,4.640721409861007 22.56056457305063,4.640721409861007 22.56056457305063,4.69125043474223 22.56056457305063,4.741779459623453 22.611093597931852,4.741779459623453 22.611093597931852,4.792308484504677 22.611093597931852,4.8428375093859 22.611093597931852,4.8428375093859 22.66162262281308,4.893366534267123 22.66162262281308,4.943895559148347 22.712151647694302,4.943895559148347 22.712151647694302,4.943895559148347 22.712151647694302,4.99442458402957 22.712151647694302,5.044953608910793 22.712151647694302,5.044953608910793 22.712151647694302,5.095482633792017 22.762680672575524,5.095482633792017 22.762680672575524,5.14601165867324 22.813209697456745,5.14601165867324 22.813209697456745,5.196540683554463 22.813209697456745,5.247069708435687 22.813209697456745,5.247069708435687 22.813209697456745,5.297598733316908 22.813209697456745,5.348127758198132 22.813209697456745,5.348127758198132 22.813209697456745,5.398656783079355 22.813209697456745,5.449185807960578 22.813209697456745,5.449185807960578 22.863738722337974,5.499714832841802 22.863738722337974,5.550243857723025 22.863738722337974,5.550243857723025 22.863738722337974,5.600772882604248 22.863738722337974,5.651301907485472 22.863738722337974,5.651301907485472 22.863738722337974,5.701830932366695 22.863738722337974,5.7523599572479185 22.863738722337974,5.7523599572479185 22.863738722337974,5.802888982129142 22.863738722337974,5.853418007010365 22.914267747219196,5.853418007010365 22.914267747219196,5.9039470318915885 22.914267747219196,5.954476056772812 22.914267747219196,5.954476056772812 22.914267747219196,6.005005081654035 22.914267747219196,6.055534106535257 22.914267747219196,6.055534106535257 22.914267747219196,6.1565921562977035 22.914267747219196,6.1565921562977035 22.914267747219196,6.207121181178927 22.914267747219196,6.25765020606015 22.914267747219196,6.25765020606015 22.914267747219196,6.308179230941374 22.914267747219196,6.358708255822597 22.914267747219196,6.358708255822597 22.914267747219196,6.40923728070382 22.914267747219196,6.459766305585044 22.914267747219196,6.459766305585044 22.914267747219196,6.510295330466267 22.914267747219196,6.560824355347489 22.914267747219196,6.560824355347489 22.914267747219196,6.611353380228714 22.914267747219196,6.661882405109936 22.914267747219196,6.71241142999116 22.914267747219196,6.762940454872384 22.914267747219196,6.762940454872384 22.914267747219196,6.813469479753604 22.914267747219196,6.863998504634829 22.914267747219196,6.863998504634829 22.914267747219196,6.914527529516051 22.914267747219196,6.965056554397275 22.863738722337974,7.015585579278499 22.863738722337974,7.066114604159723 22.863738722337974,7.116643629040945 22.863738722337974,7.16717265392217 22.813209697456745,7.16717265392217 22.813209697456745,7.16717265392217 22.813209697456745,7.217701678803392 22.813209697456745,7.268230703684614 22.813209697456745,7.268230703684614 22.813209697456745,7.318759728565839 22.813209697456745,7.318759728565839 22.813209697456745,7.36928875344706 22.813209697456745,7.36928875344706 22.762680672575524,7.4198177783282855 22.762680672575524,7.470346803209507 22.712151647694302,7.470346803209507 22.712151647694302,7.571404852971954 22.712151647694302,7.571404852971954 22.712151647694302,7.62193387785318 22.712151647694302,7.6724629027344005 22.712151647694302,7.6724629027344005 22.712151647694302,7.722991927615625 22.712151647694302,7.773520952496848 22.66162262281308,7.773520952496848 22.66162262281308,7.824049977378072 22.66162262281308,7.874579002259293 22.66162262281308,7.874579002259293 22.611093597931852,7.874579002259293 22.611093597931852,7.925108027140519 22.611093597931852,7.97563705202174 22.611093597931852,7.97563705202174 22.611093597931852,8.026166076902962 22.56056457305063,8.026166076902962 22.56056457305063,8.076695101784187 22.56056457305063,8.127224126665409 22.51003554816941,8.177753151546634 22.51003554816941,8.177753151546634 22.51003554816941,8.228282176427856 22.51003554816941,8.27881120130908 22.51003554816941,8.329340226190302 22.51003554816941,8.379869251071527 22.51003554816941,8.379869251071527 22.51003554816941,8.379869251071527 22.51003554816941,8.430398275952749 22.459506523288187,8.430398275952749 22.459506523288187,8.480927300833974 22.459506523288187,8.480927300833974 22.40897749840696,8.480927300833974 22.40897749840696,8.531456325715196 22.40897749840696,8.58198535059642 22.40897749840696,8.58198535059642 22.40897749840696,8.632514375477642 22.40897749840696,8.683043400358867 22.40897749840696,8.683043400358867 22.358448473525737,8.683043400358867 22.307919448644515,8.733572425240089 22.307919448644515,8.78410145012131 22.307919448644515,8.78410145012131 22.307919448644515,8.834630475002536 22.307919448644515,8.885159499883757 22.307919448644515,8.885159499883757 22.307919448644515,8.935688524764982 22.257390423763294,8.935688524764982 22.257390423763294,8.986217549646204 22.257390423763294,8.986217549646204 22.206861398882072,9.03674657452743 22.206861398882072,9.08727559940865 22.206861398882072,9.08727559940865 22.206861398882072,9.08727559940865 22.156332374000844,9.08727559940865 22.156332374000844,9.137804624289876 22.156332374000844,9.188333649171097 22.105803349119622,9.188333649171097 22.105803349119622,9.188333649171097 22.105803349119622,9.238862674052323 22.105803349119622,9.238862674052323 22.105803349119622,9.289391698933544 22.105803349119622,9.289391698933544 22.0552743242384,9.33992072381477 22.00474529935718,9.33992072381477 22.00474529935718,9.39044974869599 22.00474529935718,9.39044974869599 22.00474529935718,9.39044974869599 22.00474529935718,9.440978773577216 21.95421627447595,9.491507798458438 21.95421627447595,9.491507798458438 21.90368724959473,9.491507798458438 21.90368724959473,9.542036823339659 21.90368724959473,9.542036823339659 21.90368724959473,9.592565848220884 21.853158224713507,9.592565848220884 21.853158224713507,9.643094873102106 21.802629199832285,9.643094873102106 21.802629199832285,9.693623897983331 21.802629199832285,9.693623897983331 21.802629199832285,9.693623897983331 21.802629199832285,9.744152922864552 21.752100174951057,9.744152922864552 21.752100174951057,9.794681947745778 21.752100174951057,9.794681947745778 21.701571150069835,9.794681947745778 21.701571150069835,9.845210972627 21.701571150069835,9.895739997508224 21.701571150069835,9.895739997508224 21.651042125188614,9.895739997508224 21.600513100307392,9.946269022389446 21.600513100307392,9.996798047270671 21.600513100307392,9.996798047270671 21.600513100307392,10.047327072151893 21.600513100307392,10.097856097033118 21.549984075426163,10.097856097033118 21.549984075426163,10.097856097033118 21.49945505054494,10.14838512191434 21.49945505054494,10.198914146795564 21.49945505054494,10.198914146795564 21.44892602566372,10.249443171676786 21.44892602566372,10.299972196558008 21.3983970007825,10.299972196558008 21.3983970007825,10.401030246320454 21.3983970007825,10.401030246320454 21.347867975901277,10.45155927120168 21.347867975901277,10.502088296082901 21.347867975901277,10.552617320964126 21.29733895102005,10.603146345845348 21.29733895102005,10.603146345845348 21.29733895102005,10.653675370726573 21.246809926138827,10.653675370726573 21.196280901257605,10.653675370726573 21.196280901257605,10.704204395607794 21.196280901257605,10.704204395607794 21.196280901257605,10.704204395607794 21.145751876376384,10.704204395607794 21.095222851495155,10.75473342048902 21.095222851495155,10.75473342048902 21.095222851495155,10.805262445370241 21.044693826613933,10.805262445370241 20.994164801732712,10.855791470251466 20.994164801732712,10.906320495132688 20.994164801732712,10.906320495132688 20.94363577685149,10.906320495132688 20.94363577685149,10.956849520013913 20.94363577685149,11.007378544895134 20.89310675197026,11.007378544895134 20.89310675197026,11.007378544895134 20.89310675197026,11.108436594657581 20.84257772708904,11.108436594657581 20.79204870220782,11.108436594657581 20.79204870220782,11.158965619538803 20.79204870220782,11.209494644420028 20.741519677326597,11.209494644420028 20.741519677326597,11.26002366930125 20.690990652445375,11.310552694182475 20.690990652445375,11.310552694182475 20.690990652445375,11.310552694182475 20.640461627564147,11.310552694182475 20.640461627564147,11.361081719063696 20.589932602682925,11.361081719063696 20.589932602682925,11.411610743944921 20.589932602682925,11.411610743944921 20.539403577801703,11.411610743944921 20.488874552920482,11.462139768826143 20.488874552920482,11.512668793707368 20.488874552920482,11.512668793707368 20.488874552920482,11.56319781858859 20.438345528039253,11.613726843469815 20.438345528039253,11.664255868351036 20.38781650315803,11.714784893232261 20.38781650315803,11.714784893232261 20.33728747827681,11.815842942994705 20.33728747827681,11.815842942994705 20.28675845339559,11.916900992757151 20.28675845339559,11.916900992757151 20.28675845339559,11.916900992757151 20.28675845339559,11.967430017638376 20.23622942851436,11.967430017638376 20.185700403633138,12.017959042519598 20.185700403633138,12.017959042519598 20.185700403633138,12.068488067400823 20.135171378751917,12.119017092282045 20.084642353870695,12.119017092282045 20.084642353870695,12.16954611716327 20.084642353870695,12.220075142044491 20.034113328989466,12.220075142044491 19.983584304108245,12.321133191806938 19.983584304108245,12.321133191806938 19.933055279227023,12.371662216688163 19.8825262543458,12.422191241569385 19.8825262543458,12.422191241569385 19.83199722946458,12.47272026645061 19.83199722946458,12.523249291331831 19.78146820458335,12.573778316213053 19.78146820458335,12.573778316213053 19.78146820458335,12.624307341094278 19.73093917970213,12.624307341094278 19.68041015482091,12.624307341094278 19.68041015482091,12.624307341094278 19.629881129939687,12.624307341094278 19.579352105058458,12.624307341094278 19.579352105058458,12.725365390856725 19.528823080177236,12.725365390856725 19.528823080177236,12.725365390856725 19.478294055296015,12.725365390856725 19.478294055296015,12.725365390856725 19.427765030414793,12.725365390856725 19.427765030414793,12.775894415737946 19.377236005533565,12.775894415737946 19.377236005533565,12.775894415737946 19.377236005533565,12.826423440619172 19.326706980652343,12.826423440619172 19.27617795577112,12.826423440619172 19.27617795577112,12.876952465500393 19.2256489308899,12.927481490381618 19.17511990600868,12.927481490381618 19.17511990600868,12.927481490381618 19.12459088112745,12.97801051526284 19.074061856246228,13.028539540144067 19.074061856246228,13.028539540144067 19.023532831365007,13.028539540144067 18.973003806483785,13.079068565025286 18.973003806483785,13.129597589906512 18.973003806483785,13.129597589906512 18.922474781602556,13.129597589906512 18.871945756721335,13.180126614787733 18.871945756721335,13.23065563966896 18.821416731840113,13.23065563966896 18.77088770695889,13.23065563966896 18.77088770695889,13.23065563966896 18.77088770695889,13.281184664550182 18.77088770695889,13.281184664550182 18.720358682077663,13.281184664550182 18.720358682077663,13.331713689431401 18.66982965719644,13.331713689431401 18.66982965719644,13.331713689431401 18.66982965719644,13.331713689431401 18.66982965719644,13.382242714312627 18.66982965719644,13.432771739193848 18.61930063231522,13.432771739193848 18.568771607433998,13.432771739193848 18.568771607433998,13.432771739193848 18.568771607433998,13.483300764075075 18.568771607433998,13.533829788956297 18.568771607433998,13.533829788956297 18.51824258255277,13.634887838718742 18.467713557671548,13.634887838718742 18.467713557671548,13.685416863599965 18.467713557671548,13.685416863599965 18.467713557671548,13.73594588848119 18.417184532790326,13.73594588848119 18.417184532790326,13.786474913362413 18.366655507909105,13.837003938243635 18.366655507909105,13.837003938243635 18.316126483027883,13.837003938243635 18.316126483027883,13.837003938243635 18.265597458146654,13.837003938243635 18.265597458146654,13.88753296312486 18.265597458146654,13.88753296312486 18.265597458146654,13.93806198800608 18.215068433265433,13.93806198800608 18.16453940838421,13.93806198800608 18.16453940838421,13.988591012887307 18.11401038350299,13.988591012887307 18.06348135862176,14.039120037768528 18.06348135862176,14.039120037768528 18.01295233374054,14.039120037768528 18.01295233374054,14.08964906264975 17.962423308859318,14.140178087530975 17.962423308859318,14.140178087530975 17.962423308859318,14.190707112412195 17.911894283978096,14.190707112412195 17.861365259096868,14.241236137293422 17.861365259096868,14.291765162174643 17.810836234215646,14.342294187055868 17.760307209334425,14.342294187055868 17.760307209334425,14.39282321193709 17.709778184453203,14.39282321193709 17.709778184453203,14.443352236818317 17.65924915957198,14.443352236818317 17.65924915957198,14.443352236818317 17.608720134690753,14.443352236818317 17.608720134690753,14.493881261699537 17.55819110980953,14.493881261699537 17.55819110980953,14.544410286580762 17.55819110980953,14.544410286580762 17.55819110980953,14.544410286580762 17.50766208492831,14.544410286580762 17.457133060047088,14.594939311461983 17.457133060047088,14.645468336343207 17.457133060047088,14.645468336343207 17.40660403516586,14.695997361224432 17.40660403516586,14.746526386105655 17.356075010284638,14.746526386105655 17.356075010284638,14.746526386105655 17.356075010284638,14.746526386105655 17.305545985403416,14.797055410986877 17.305545985403416,14.847584435868098 17.255016960522195,14.847584435868098 17.204487935640966,14.898113460749322 17.153958910759744,14.948642485630547 17.153958910759744,14.99917151051177 17.153958910759744,15.049700535392992 17.103429885878523,15.049700535392992 17.103429885878523,15.049700535392992 17.103429885878523,15.100229560274215 17.0529008609973,15.150758585155437 17.0529008609973,15.150758585155437 17.0529008609973,15.150758585155437 17.0529008609973,15.201287610036664 17.002371836116073,15.251816634917885 16.95184281123485,15.30234565979911 16.95184281123485,15.30234565979911 16.90131378635363,15.35287468468033 16.850784761472408,15.35287468468033 16.850784761472408,15.403403709561557 16.850784761472408,15.453932734442779 16.850784761472408,15.453932734442779 16.850784761472408,15.453932734442779 16.800255736591186,15.453932734442779 16.749726711709958,15.504461759324004 16.749726711709958,15.554990784205225 16.749726711709958,15.554990784205225 16.749726711709958,15.554990784205225 16.699197686828736,15.605519809086445 16.699197686828736,15.656048833967674 16.648668661947514,15.656048833967674 16.648668661947514,15.656048833967674 16.598139637066293,15.706577858848894 16.598139637066293,15.757106883730119 16.547610612185064,15.757106883730119 16.547610612185064,15.80763590861134 16.547610612185064,15.858164933492567 16.497081587303843,15.858164933492567 16.44655256242262,15.908693958373789 16.44655256242262,15.908693958373789 16.44655256242262,15.959222983255012 16.3960235375414,15.959222983255012 16.34549451266017,15.959222983255012 16.34549451266017,15.959222983255012 16.34549451266017,15.959222983255012 16.29496548777895,16.009752008136232 16.29496548777895,16.06028103301746 16.244436462897728,16.06028103301746 16.193907438016502,16.110810057898682 16.193907438016502,16.161339082779904 16.14337841313528,16.161339082779904 16.09284938825406,16.211868107661125 16.042320363372834,16.211868107661125 16.042320363372834,16.262397132542354 16.042320363372834,16.262397132542354 15.991791338491613,16.312926157423576 15.94126231361039,16.363455182304797 15.94126231361039,16.363455182304797 15.94126231361039,16.363455182304797 15.890733288729164,16.363455182304797 15.84020426384794,16.363455182304797 15.84020426384794,16.41398420718602 15.84020426384794,16.41398420718602 15.78967523896672,16.46451323206724 15.739146214085496,16.46451323206724 15.739146214085496,16.46451323206724 15.739146214085496,16.51504225694847 15.688617189204274,16.51504225694847 15.638088164323047,16.51504225694847 15.638088164323047,16.56557128182969 15.638088164323047,16.56557128182969 15.587559139441826,16.56557128182969 15.587559139441826,16.56557128182969 15.5370301145606,16.616100306710912 15.5370301145606,16.616100306710912 15.5370301145606,16.666629331592134 15.48650108967938,16.666629331592134 15.435972064798154,16.666629331592134 15.385443039916932,16.717158356473362 15.33491401503571,16.767687381354584 15.33491401503571,16.767687381354584 15.33491401503571,16.818216406235805 15.233855965273266,16.868745431117027 15.233855965273266,16.919274455998256 15.233855965273266,16.969803480879477 15.183326940392039,17.0203325057607 15.132797915510817,17.07086153064192 15.082268890629592,17.07086153064192 15.03173986574837,17.121390555523142 15.03173986574837,17.17191958040437 15.03173986574837,17.17191958040437 15.03173986574837,17.17191958040437 14.981210840867144,17.17191958040437 14.981210840867144,17.222448605285592 14.930681815985922,17.222448605285592 14.930681815985922,17.272977630166814 14.930681815985922,17.323506655048035 14.930681815985922,17.374035679929264 14.880152791104699,17.374035679929264 14.829623766223477,17.374035679929264 14.829623766223477,17.424564704810486 14.829623766223477,17.475093729691707 14.829623766223477,17.475093729691707 14.779094741342254,17.52562275457293 14.779094741342254,17.576151779454158 14.728565716461029,17.576151779454158 14.728565716461029,17.62668080433538 14.678036691579806,17.6772098292166 14.627507666698584,17.727738854097822 14.627507666698584,17.77826787897905 14.627507666698584,17.828796903860272 14.576978641817362,17.828796903860272 14.526449616936139,17.828796903860272 14.526449616936139,17.879325928741494 14.526449616936139,17.879325928741494 14.475920592054914,17.879325928741494 14.42539156717369,17.879325928741494 14.42539156717369,17.929854953622716 14.42539156717369,17.929854953622716 14.374862542292469,17.929854953622716 14.374862542292469,17.980383978503937 14.324333517411246,17.980383978503937 14.324333517411246,17.980383978503937 14.324333517411246,17.980383978503937 14.324333517411246,18.030913003385166 14.273804492530024,18.030913003385166 14.223275467648797,18.081442028266387 14.223275467648797,18.081442028266387 14.223275467648797,18.13197105314761 14.172746442767576,18.13197105314761 14.12221741788635,18.13197105314761 14.12221741788635,18.18250007802883 14.12221741788635,18.18250007802883 14.12221741788635,18.18250007802883 14.07168839300513,18.18250007802883 14.07168839300513,18.23302910291006 14.021159368123902,18.28355812779128 14.021159368123902,18.28355812779128 13.970630343242682,18.28355812779128 13.970630343242682,18.334087152672502 13.920101318361457,18.334087152672502 13.920101318361457,18.384616177553724 13.869572293480235,18.384616177553724 13.869572293480235,18.435145202434953 13.819043268599016,18.435145202434953 13.819043268599016,18.485674227316174 13.819043268599016,18.485674227316174 13.819043268599016,18.536203252197396 13.717985218836567,18.586732277078617 13.667456193955342,18.63726130195984 13.61692716907412,18.63726130195984 13.61692716907412,18.687790326841068 13.566398144192894,18.687790326841068 13.515869119311672,18.687790326841068 13.515869119311672,18.687790326841068 13.465340094430449,18.73831935172229 13.465340094430449,18.78884837660351 13.414811069549227,18.78884837660351 13.414811069549227,18.78884837660351 13.414811069549227,18.78884837660351 13.364282044668004,18.78884837660351 13.313753019786779,18.78884837660351 13.313753019786779,18.78884837660351 13.263223994905555,18.839377401484732 13.212694970024334,18.839377401484732 13.212694970024334,18.839377401484732 13.16216594514311,18.839377401484732 13.111636920261889,18.839377401484732 13.111636920261889,18.839377401484732 13.111636920261889,18.839377401484732 13.16216594514311,18.839377401484732 13.212694970024334,18.839377401484732 13.212694970024334,18.88990642636596 13.212694970024334,18.88990642636596 13.16216594514311,18.88990642636596 13.16216594514311,18.940435451247183 13.16216594514311,18.990964476128404 13.111636920261889,18.990964476128404 13.111636920261889,18.990964476128404 13.111636920261889,19.041493501009626 13.111636920261889,19.092022525890854 13.111636920261889,19.092022525890854 13.111636920261889,19.142551550772076 13.111636920261889,19.193080575653298 13.061107895380664,19.193080575653298 13.061107895380664,19.24360960053452 13.01057887049944,19.294138625415748 13.01057887049944,19.34466765029697 12.960049845618219,19.39519667517819 12.960049845618219,19.445725700059413 12.909520820736994,19.496254724940634 12.909520820736994,19.597312774703084 12.858991795855772,19.597312774703084 12.808462770974547,19.597312774703084 12.808462770974547,19.597312774703084 12.808462770974547,19.647841799584306 12.808462770974547,19.698370824465528 12.757933746093325,19.698370824465528 12.757933746093325,19.698370824465528 12.7074047212121,19.698370824465528 12.7074047212121,19.698370824465528 12.656875696330879,19.698370824465528 12.656875696330879,19.748899849346756 12.606346671449653,19.748899849346756 12.555817646568432,19.799428874227978 12.555817646568432,19.799428874227978 12.505288621687207,19.799428874227978 12.505288621687207,19.799428874227978 12.505288621687207,19.8499578991092 12.454759596805985,19.8499578991092 12.454759596805985,19.90048692399042 12.40423057192476,19.90048692399042 12.40423057192476,19.90048692399042 12.353701547043539,19.90048692399042 12.353701547043539,19.90048692399042 12.353701547043539,19.95101594887165 12.353701547043539,20.00154497375287 12.303172522162317,20.00154497375287 12.303172522162317,20.00154497375287 12.303172522162317,20.00154497375287 12.252643497281092,20.00154497375287 12.252643497281092,20.052073998634093 12.252643497281092,20.102603023515314 12.20211447239987,20.102603023515314 12.20211447239987,20.102603023515314 12.20211447239987,20.102603023515314 12.151585447518645,20.102603023515314 12.101056422637424,20.153132048396536 12.101056422637424,20.153132048396536 12.050527397756198,20.203661073277765 11.999998372874977,20.203661073277765 11.999998372874977,20.203661073277765 11.999998372874977,20.203661073277765 11.949469347993752,20.203661073277765 11.949469347993752,20.254190098158986 11.949469347993752,20.304719123040208 11.89894032311253,20.304719123040208 11.89894032311253,20.304719123040208 11.848411298231305,20.304719123040208 11.848411298231305,20.35524814792143 11.848411298231305,20.405777172802658 11.848411298231305,20.405777172802658 11.848411298231305,20.45630619768388 11.848411298231305,20.5068352225651 11.848411298231305,20.45630619768388 11.848411298231305,20.405777172802658 11.848411298231305,20.405777172802658 11.797882273350083,20.405777172802658 11.797882273350083,20.35524814792143 11.797882273350083,20.304719123040208 11.797882273350083,20.304719123040208 11.797882273350083,20.304719123040208 11.797882273350083,20.254190098158986 11.797882273350083,20.203661073277765 11.797882273350083,20.203661073277765 11.747353248468858,20.203661073277765 11.696824223587637,20.203661073277765 11.696824223587637,20.153132048396536 11.696824223587637,20.102603023515314 11.696824223587637,20.102603023515314 11.696824223587637,20.102603023515314 11.646295198706412,20.102603023515314 11.646295198706412,20.052073998634093 11.646295198706412,20.00154497375287 11.59576617382519,20.00154497375287 11.59576617382519,20.00154497375287 11.59576617382519,20.00154497375287 11.59576617382519,19.95101594887165 11.59576617382519,19.90048692399042 11.545237148943968,19.90048692399042 11.545237148943968,19.90048692399042 11.545237148943968,19.8499578991092 11.494708124062743,19.799428874227978 11.494708124062743,19.799428874227978 11.494708124062743,19.799428874227978 11.444179099181522,19.748899849346756 11.444179099181522,19.698370824465528 11.393650074300297,19.698370824465528 11.393650074300297,19.698370824465528 11.393650074300297,19.647841799584306 11.393650074300297,19.597312774703084 11.343121049419075,19.597312774703084 11.29259202453785,19.597312774703084 11.29259202453785,19.546783749821863 11.29259202453785,19.496254724940634 11.242062999656628,19.496254724940634 11.191533974775403,19.496254724940634 11.191533974775403,19.445725700059413 11.141004949894182,19.445725700059413 11.141004949894182,19.39519667517819 11.090475925012957,19.39519667517819 11.090475925012957,19.39519667517819 11.090475925012957,19.34466765029697 11.090475925012957,19.34466765029697 11.039946900131735,19.34466765029697 11.039946900131735,19.294138625415748 10.98941787525051,19.294138625415748 10.98941787525051,19.294138625415748 10.98941787525051,19.294138625415748 10.938888850369288,19.24360960053452 10.938888850369288,19.193080575653298 10.888359825488063,19.193080575653298 10.888359825488063,19.193080575653298 10.888359825488063,19.193080575653298 10.837830800606842,19.142551550772076 10.837830800606842,19.092022525890854 10.78730177572562,19.092022525890854 10.78730177572562,19.092022525890854 10.78730177572562,19.092022525890854 10.78730177572562,19.041493501009626 10.736772750844395,19.041493501009626 10.736772750844395,18.990964476128404 10.686243725963173,18.990964476128404 10.686243725963173,18.990964476128404 10.686243725963173,18.940435451247183 10.686243725963173,18.940435451247183 10.686243725963173,18.88990642636596 10.635714701081948,18.88990642636596 10.585185676200727,18.88990642636596 10.585185676200727,18.78884837660351 10.585185676200727,18.78884837660351 10.585185676200727,18.73831935172229 10.534656651319501,18.73831935172229 10.534656651319501,18.687790326841068 10.534656651319501,18.687790326841068 10.48412762643828,18.687790326841068 10.48412762643828,18.63726130195984 10.48412762643828,18.586732277078617 10.48412762643828,18.586732277078617 10.433598601557055,18.536203252197396 10.383069576675833,18.485674227316174 10.383069576675833,18.485674227316174 10.383069576675833,18.485674227316174 10.383069576675833,18.435145202434953 10.383069576675833,18.384616177553724 10.332540551794608,18.384616177553724 10.282011526913386,18.334087152672502 10.282011526913386,18.28355812779128 10.282011526913386,18.23302910291006 10.282011526913386,18.18250007802883 10.231482502032161,18.18250007802883 10.231482502032161,18.13197105314761 10.18095347715094,18.081442028266387 10.18095347715094,18.081442028266387 10.18095347715094,18.030913003385166 10.18095347715094,18.030913003385166 10.18095347715094,17.980383978503937 10.130424452269715,17.980383978503937 10.130424452269715,17.929854953622716 10.079895427388493,17.879325928741494 10.079895427388493,17.879325928741494 10.029366402507272,17.828796903860272 10.029366402507272,17.77826787897905 9.978837377626046,17.77826787897905 9.978837377626046,17.77826787897905 9.978837377626046,17.77826787897905 9.978837377626046,17.727738854097822 9.978837377626046,17.6772098292166 9.928308352744825,17.6772098292166 9.8777793278636,17.6772098292166 9.8777793278636,17.6772098292166 9.8777793278636,17.62668080433538 9.827250302982378,17.62668080433538 9.776721278101153,17.576151779454158 9.776721278101153,17.576151779454158 9.726192253219931,17.52562275457293 9.675663228338706,17.52562275457293 9.675663228338706,17.475093729691707 9.675663228338706,17.475093729691707 9.625134203457485,17.475093729691707 9.625134203457485,17.475093729691707 9.57460517857626,17.475093729691707 9.57460517857626,17.424564704810486 9.57460517857626,17.374035679929264 9.524076153695038,17.374035679929264 9.473547128813813,17.374035679929264 9.473547128813813,17.374035679929264 9.473547128813813,17.374035679929264 9.423018103932591,17.374035679929264 9.372489079051366,17.374035679929264 9.372489079051366,17.374035679929264 9.321960054170145,17.374035679929264 9.321960054170145,17.323506655048035 9.321960054170145,17.272977630166814 9.271431029288923,17.272977630166814 9.271431029288923,17.272977630166814 9.220902004407698,17.272977630166814 9.220902004407698,17.222448605285592 9.170372979526476,17.222448605285592 9.170372979526476,17.17191958040437 9.119843954645251,17.17191958040437 9.119843954645251,17.121390555523142 9.06931492976403,17.121390555523142 9.06931492976403,17.07086153064192 9.018785904882805,17.07086153064192 9.018785904882805,17.0203325057607 8.968256880001583,16.969803480879477 8.968256880001583,16.969803480879477 8.968256880001583,16.969803480879477 8.917727855120358,16.919274455998256 8.867198830239136,16.919274455998256 8.867198830239136,16.868745431117027 8.867198830239136,16.868745431117027 8.867198830239136,16.868745431117027 8.816669805357911,16.818216406235805 8.76614078047669,16.818216406235805 8.76614078047669,16.767687381354584 8.76614078047669,16.767687381354584 8.76614078047669,16.767687381354584 8.76614078047669,16.717158356473362 8.715611755595464,16.717158356473362 8.715611755595464,16.666629331592134 8.665082730714243,16.666629331592134 8.665082730714243,16.666629331592134 8.665082730714243,16.666629331592134 8.665082730714243,16.616100306710912 8.614553705833018,16.616100306710912 8.614553705833018,16.56557128182969 8.564024680951796,16.56557128182969 8.564024680951796,16.56557128182969 8.564024680951796,16.56557128182969 8.564024680951796,16.56557128182969 8.564024680951796,16.616100306710912 8.564024680951796,16.666629331592134 8.564024680951796,16.666629331592134 8.564024680951796,16.717158356473362 8.564024680951796,16.767687381354584 8.564024680951796,16.767687381354584 8.564024680951796,16.767687381354584 8.564024680951796,16.818216406235805 8.614553705833018,16.818216406235805 8.614553705833018,16.868745431117027 8.665082730714243,16.868745431117027 8.665082730714243,16.919274455998256 8.665082730714243,16.969803480879477 8.76614078047669,16.969803480879477 8.76614078047669,17.0203325057607 8.816669805357911,17.07086153064192 8.816669805357911,17.07086153064192 8.867198830239136,17.07086153064192 8.867198830239136,17.17191958040437 8.917727855120358,17.17191958040437 8.917727855120358,17.17191958040437 8.968256880001583,17.17191958040437 8.968256880001583,17.222448605285592 8.968256880001583,17.222448605285592 8.968256880001583,17.17191958040437 8.968256880001583,17.17191958040437 8.917727855120358,17.17191958040437 8.917727855120358,17.121390555523142 8.867198830239136,17.121390555523142 8.867198830239136,17.07086153064192 8.867198830239136,17.07086153064192 8.816669805357911,17.07086153064192 8.816669805357911,17.07086153064192 8.816669805357911,17.07086153064192 8.816669805357911,17.121390555523142 8.816669805357911,17.17191958040437 8.867198830239136,17.17191958040437 8.867198830239136,17.222448605285592 8.867198830239136,17.222448605285592 8.867198830239136,17.272977630166814 8.917727855120358,17.272977630166814 8.968256880001583,17.272977630166814 8.968256880001583,17.323506655048035 9.018785904882805,17.323506655048035 9.06931492976403,17.374035679929264 9.06931492976403,17.374035679929264 9.06931492976403,17.424564704810486 9.119843954645251,17.475093729691707 9.119843954645251,17.475093729691707 9.119843954645251,17.475093729691707 9.119843954645251,17.424564704810486 9.06931492976403,17.374035679929264 9.06931492976403,17.374035679929264 9.06931492976403,17.374035679929264 9.018785904882805,17.374035679929264 8.968256880001583,17.374035679929264 8.968256880001583,17.323506655048035 8.968256880001583,17.323506655048035 8.917727855120358,17.272977630166814 8.867198830239136,17.272977630166814 8.867198830239136,17.272977630166814 8.867198830239136,17.222448605285592 8.867198830239136,17.222448605285592 8.867198830239136,17.17191958040437 8.816669805357911,17.17191958040437 8.76614078047669,17.121390555523142 8.76614078047669,17.07086153064192 8.76614078047669,17.07086153064192 8.715611755595464,17.07086153064192 8.715611755595464,16.969803480879477 8.665082730714243,16.969803480879477 8.614553705833018,16.919274455998256 8.564024680951796,16.868745431117027 8.513495656070575,16.818216406235805 8.513495656070575,16.767687381354584 8.46296663118935,16.767687381354584 8.46296663118935,16.717158356473362 8.46296663118935,16.666629331592134 8.412437606308128,16.666629331592134 8.361908581426903,16.666629331592134 8.361908581426903,16.616100306710912 8.361908581426903,16.56557128182969 8.311379556545681,16.56557128182969 8.311379556545681,16.51504225694847 8.260850531664456,16.51504225694847 8.260850531664456,16.46451323206724 8.260850531664456,16.46451323206724 8.210321506783234,16.46451323206724 8.210321506783234,16.41398420718602 8.210321506783234,16.363455182304797 8.15979248190201,16.363455182304797 8.15979248190201,16.363455182304797 8.109263457020788,16.363455182304797 8.109263457020788,16.312926157423576 8.109263457020788,16.262397132542354 8.058734432139563,16.262397132542354 8.058734432139563,16.262397132542354 8.058734432139563,16.262397132542354 8.058734432139563,16.211868107661125 8.008205407258341,16.211868107661125 8.008205407258341,16.161339082779904 7.957676382377115,16.161339082779904 7.957676382377115,16.161339082779904 7.957676382377115,16.110810057898682 7.957676382377115,16.110810057898682 7.907147357495894,16.110810057898682 7.907147357495894,16.06028103301746 7.856618332614668,16.06028103301746 7.856618332614668,16.009752008136232 7.856618332614668,16.009752008136232 7.856618332614668,15.959222983255012 7.806089307733448,15.959222983255012 7.806089307733448,15.959222983255012 7.755560282852226,15.959222983255012 7.755560282852226,15.858164933492567 7.755560282852226,15.858164933492567 7.755560282852226,15.858164933492567 7.705031257971,15.858164933492567 7.705031257971,15.80763590861134 7.654502233089779,15.80763590861134 7.654502233089779,15.757106883730119 7.654502233089779,15.757106883730119 7.654502233089779,15.706577858848894 7.603973208208555,15.706577858848894 7.603973208208555,15.656048833967674 7.603973208208555,15.656048833967674 7.553444183327333,15.656048833967674 7.553444183327333,15.605519809086445 7.553444183327333,15.554990784205225 7.553444183327333,15.554990784205225 7.5029151584461085,15.554990784205225 7.452386133564885,15.554990784205225 7.452386133564885,15.504461759324004 7.452386133564885,15.453932734442779 7.452386133564885,15.453932734442779 7.401857108683661,15.453932734442779 7.401857108683661,15.403403709561557 7.35132808380244,15.403403709561557 7.35132808380244,15.35287468468033 7.35132808380244,15.35287468468033 7.35132808380244,15.30234565979911 7.300799058921214,15.30234565979911 7.2502700340399935,15.251816634917885 7.2502700340399935,15.251816634917885 7.2502700340399935,15.251816634917885 7.1997410091587675,15.201287610036664 7.149211984277546,15.201287610036664 7.149211984277546,15.150758585155437 7.098682959396321,15.150758585155437 7.098682959396321,15.150758585155437 7.048153934515099,15.150758585155437 7.048153934515099,15.100229560274215 7.048153934515099,15.100229560274215 6.9976249096338785,15.049700535392992 6.9470958847526525,15.049700535392992 6.9470958847526525,14.99917151051177 6.846037834990206,14.99917151051177 6.846037834990206,14.948642485630547 6.846037834990206,14.948642485630547 6.795508810108984,14.948642485630547 6.795508810108984,14.948642485630547 6.795508810108984,14.898113460749322 6.744979785227759,14.898113460749322 6.744979785227759,14.847584435868098 6.6944507603465375,14.847584435868098 6.6944507603465375,14.847584435868098 6.6439217354653115,14.847584435868098 6.6439217354653115,14.797055410986877 6.6439217354653115,14.797055410986877 6.6439217354653115,14.746526386105655 6.593392710584091,14.746526386105655 6.542863685702865,14.746526386105655 6.542863685702865,14.695997361224432 6.542863685702865,14.695997361224432 6.542863685702865,14.645468336343207 6.492334660821644,14.645468336343207 6.492334660821644,14.594939311461983 6.492334660821644,14.544410286580762 6.441805635940419,14.544410286580762 6.441805635940419,14.544410286580762 6.441805635940419,14.544410286580762 6.441805635940419,14.493881261699537 6.391276611059197,14.493881261699537 6.391276611059197,14.443352236818317 6.391276611059197,14.443352236818317 6.391276611059197,14.39282321193709 6.340747586177972,14.342294187055868 6.340747586177972,14.342294187055868 6.340747586177972,14.342294187055868 6.340747586177972,14.291765162174643 6.290218561296751,14.291765162174643 6.290218561296751,14.241236137293422 6.239689536415529,14.190707112412195 6.239689536415529,14.140178087530975 6.239689536415529,14.140178087530975 6.239689536415529,14.140178087530975 6.239689536415529,14.08964906264975 6.239689536415529,14.039120037768528 6.189160511534304,14.039120037768528 6.1386314866530824,14.039120037768528 6.1386314866530824,13.988591012887307 6.1386314866530824,13.988591012887307 6.1386314866530824,13.93806198800608 6.088102461771857,13.88753296312486 6.037573436890636,13.88753296312486 6.037573436890636,13.837003938243635 6.037573436890636,13.837003938243635 6.037573436890636,13.786474913362413 5.987044412009411,13.73594588848119 5.987044412009411,13.73594588848119 5.936515387128189,13.685416863599965 5.936515387128189,13.634887838718742 5.936515387128189,13.634887838718742 5.936515387128189,13.634887838718742 5.885986362246964,13.634887838718742 5.885986362246964,13.58435881383752 5.835457337365742,13.58435881383752 5.835457337365742,13.533829788956297 5.835457337365742,13.533829788956297 5.835457337365742,13.533829788956297 5.784928312484517,13.533829788956297 5.784928312484517,13.483300764075075 5.734399287603296,13.483300764075075 5.734399287603296,13.483300764075075 5.734399287603296,13.432771739193848 5.6838702627220705,13.432771739193848 5.6838702627220705,13.432771739193848 5.633341237840849,13.432771739193848 5.633341237840849,13.382242714312627 5.633341237840849,13.382242714312627 5.582812212959624,13.382242714312627 5.582812212959624,13.331713689431401 5.532283188078402,13.331713689431401 5.532283188078402,13.331713689431401 5.532283188078402,13.331713689431401 5.481754163197181,13.331713689431401 5.481754163197181,13.281184664550182 5.4312251383159555,13.281184664550182 5.4312251383159555,13.23065563966896 5.4312251383159555,13.23065563966896 5.380696113434734,13.23065563966896 5.380696113434734,13.180126614787733 5.330167088553509,13.129597589906512 5.330167088553509,13.129597589906512 5.279638063672287,13.079068565025286 5.229109038791062,13.028539540144067 5.229109038791062,13.028539540144067 5.178580013909841,13.028539540144067 5.178580013909841,12.97801051526284 5.1280509890286154,12.97801051526284 5.1280509890286154,12.927481490381618 5.1280509890286154,12.927481490381618 5.1280509890286154,12.927481490381618 5.1280509890286154,12.876952465500393 5.077521964147394,12.876952465500393 5.026992939266169,12.876952465500393 5.026992939266169,12.826423440619172 5.026992939266169,12.826423440619172 5.026992939266169,12.826423440619172 5.026992939266169,12.876952465500393 5.026992939266169,12.927481490381618 5.026992939266169,12.927481490381618 5.026992939266169,12.97801051526284 5.026992939266169,13.028539540144067 5.026992939266169,13.028539540144067 5.026992939266169,13.079068565025286 5.077521964147394,13.079068565025286 5.077521964147394,13.129597589906512 5.1280509890286154,13.180126614787733 5.1280509890286154,13.23065563966896 5.178580013909841,13.23065563966896 5.178580013909841,13.281184664550182 5.229109038791062,13.331713689431401 5.229109038791062,13.331713689431401 5.279638063672287,13.382242714312627 5.330167088553509,13.432771739193848 5.380696113434734,13.432771739193848 5.380696113434734,13.432771739193848 5.4312251383159555,13.432771739193848 5.4312251383159555,13.483300764075075 5.481754163197181,13.483300764075075 5.481754163197181,13.533829788956297 5.532283188078402,13.533829788956297 5.532283188078402,13.58435881383752 5.532283188078402,13.634887838718742 5.582812212959624,13.634887838718742 5.633341237840849,13.634887838718742 5.633341237840849,13.685416863599965 5.633341237840849,13.685416863599965 5.633341237840849,13.73594588848119 5.6838702627220705,13.73594588848119 5.6838702627220705,13.786474913362413 5.6838702627220705,13.837003938243635 5.6838702627220705,13.837003938243635 5.6838702627220705,13.88753296312486 5.6838702627220705,13.93806198800608 5.6838702627220705,13.93806198800608 5.6838702627220705,13.988591012887307 5.6838702627220705,14.039120037768528 5.734399287603296,14.039120037768528 5.734399287603296,14.039120037768528 5.734399287603296,14.039120037768528 5.784928312484517,14.039120037768528 5.835457337365742,14.039120037768528 5.835457337365742,14.08964906264975 5.835457337365742,14.08964906264975 5.835457337365742,14.140178087530975 5.885986362246964,14.140178087530975 5.936515387128189,14.140178087530975 5.936515387128189,14.140178087530975 5.936515387128189,14.190707112412195 5.987044412009411,14.190707112412195 5.987044412009411,14.241236137293422 5.987044412009411,14.241236137293422 6.037573436890636,14.241236137293422 6.037573436890636,14.291765162174643 6.037573436890636,14.342294187055868 6.088102461771857,14.342294187055868 6.088102461771857,14.342294187055868 6.088102461771857,14.39282321193709 6.1386314866530824,14.39282321193709 6.1386314866530824,14.443352236818317 6.1386314866530824,14.443352236818317 6.189160511534304,14.443352236818317 6.239689536415529,14.443352236818317 6.239689536415529,14.443352236818317 6.239689536415529,14.443352236818317 6.239689536415529,14.443352236818317 6.239689536415529,14.39282321193709 6.239689536415529,14.342294187055868 6.239689536415529,14.342294187055868 6.239689536415529,14.291765162174643 6.239689536415529,14.241236137293422 6.239689536415529,14.241236137293422 6.239689536415529,14.190707112412195 6.189160511534304,14.140178087530975 6.1386314866530824,14.140178087530975 6.1386314866530824,14.08964906264975 6.1386314866530824,14.039120037768528 6.1386314866530824,13.988591012887307 6.1386314866530824,13.93806198800608 6.1386314866530824,13.93806198800608 6.088102461771857,13.88753296312486 6.088102461771857,13.837003938243635 6.037573436890636,13.837003938243635 6.037573436890636,13.786474913362413 6.037573436890636,13.73594588848119 6.037573436890636,13.73594588848119 5.987044412009411,13.685416863599965 5.987044412009411,13.634887838718742 5.987044412009411,13.634887838718742 5.936515387128189,13.58435881383752 5.885986362246964,13.533829788956297 5.885986362246964,13.483300764075075 5.835457337365742,13.432771739193848 5.835457337365742,13.432771739193848 5.835457337365742,13.382242714312627 5.835457337365742,13.331713689431401 5.784928312484517,13.331713689431401 5.734399287603296,13.331713689431401 5.734399287603296,13.331713689431401 5.734399287603296,13.23065563966896 5.6838702627220705,13.23065563966896 5.633341237840849,13.23065563966896 5.582812212959624,13.180126614787733 5.532283188078402,13.180126614787733 5.532283188078402,13.129597589906512 5.532283188078402,13.129597589906512 5.481754163197181,13.129597589906512 5.4312251383159555,13.129597589906512 5.4312251383159555,13.129597589906512 5.380696113434734,13.079068565025286 5.330167088553509,13.079068565025286 5.279638063672287,13.079068565025286 5.229109038791062,13.079068565025286 5.229109038791062,13.079068565025286 5.178580013909841,13.079068565025286 5.1280509890286154,13.079068565025286 5.1280509890286154,13.079068565025286 5.077521964147394,13.079068565025286 5.026992939266169,13.079068565025286 5.026992939266169,13.028539540144067 4.976463914384947,13.028539540144067 4.925934889503722,13.028539540144067 4.925934889503722,13.028539540144067 4.8754058646225005,13.028539540144067 4.8754058646225005,12.97801051526284 4.824876839741275,12.97801051526284 4.824876839741275,12.927481490381618 4.824876839741275,12.927481490381618 4.824876839741275,12.927481490381618 4.774347814860054,12.876952465500393 4.723818789978832,12.876952465500393 4.723818789978832,12.826423440619172 4.723818789978832,12.826423440619172 4.723818789978832,12.826423440619172 4.673289765097607,12.775894415737946 4.6227607402163855,12.725365390856725 4.6227607402163855,12.725365390856725 4.57223171533516,12.725365390856725 4.57223171533516,12.725365390856725 4.57223171533516,12.6748363659755 4.521702690453939,12.6748363659755 4.521702690453939,12.624307341094278 4.521702690453939,12.624307341094278 4.521702690453939,12.624307341094278 4.471173665572714,12.624307341094278 4.471173665572714,12.573778316213053 4.471173665572714,12.523249291331831 4.420644640691492,12.523249291331831 4.420644640691492,12.523249291331831 4.420644640691492,12.523249291331831 4.420644640691492,12.47272026645061 4.420644640691492,12.422191241569385 4.370115615810267,12.422191241569385 4.319586590929045,12.371662216688163 4.319586590929045,12.321133191806938 4.319586590929045,12.321133191806938 4.319586590929045,12.270604166925716 4.218528541166599,12.220075142044491 4.218528541166599,12.220075142044491 4.167999516285374,12.119017092282045 4.167999516285374,12.119017092282045 4.117470491404152,12.068488067400823 4.117470491404152,12.017959042519598 4.066941466522927,11.967430017638376 4.066941466522927,11.916900992757151 4.066941466522927,11.86637196787593 4.016412441641705,11.86637196787593 4.016412441641705,11.815842942994705 4.016412441641705,11.815842942994705 4.016412441641705,11.815842942994705 4.016412441641705,11.765313918113483 4.016412441641705,11.714784893232261 3.9658834167604837,11.714784893232261 3.9658834167604837,11.714784893232261 3.9658834167604837,11.664255868351036 3.9153543918792586,11.664255868351036 3.9153543918792586,11.613726843469815 3.9153543918792586,11.613726843469815 3.9153543918792586,11.613726843469815 3.864825366998037,11.613726843469815 3.864825366998037,11.56319781858859 3.814296342116812,11.56319781858859 3.814296342116812,11.512668793707368 3.814296342116812,11.512668793707368 3.7637673172355908,11.462139768826143 3.713238292354365,11.462139768826143 3.713238292354365,11.411610743944921 3.713238292354365,11.411610743944921 3.713238292354365,11.361081719063696 3.6627092674731436,11.361081719063696 3.612180242591918,11.310552694182475 3.612180242591918,11.310552694182475 3.612180242591918,11.26002366930125 3.561651217710697,11.209494644420028 3.5111221928294722,11.209494644420028 3.5111221928294722,11.209494644420028 3.5111221928294722,11.209494644420028 3.5111221928294722,11.158965619538803 3.5111221928294722,11.108436594657581 3.4605931679482502,11.108436594657581 3.4605931679482502,11.108436594657581 3.4605931679482502,11.057907569776356 3.410064143067025,11.057907569776356 3.410064143067025,11.007378544895134 3.359535118185803,11.007378544895134 3.359535118185803,11.007378544895134 3.3090060933045784,11.007378544895134 3.3090060933045784,10.956849520013913 3.3090060933045784,10.906320495132688 3.3090060933045784,10.906320495132688 3.2584770684233573,10.906320495132688 3.2584770684233573,10.906320495132688 3.2079480435421353,10.906320495132688 3.2079480435421353,10.855791470251466 3.2079480435421353,10.805262445370241 3.2079480435421353,10.805262445370241 3.1068899937796886,10.75473342048902 3.1068899937796886,10.704204395607794 3.1068899937796886,10.704204395607794 3.1068899937796886,10.704204395607794 3.0563609688984634,10.653675370726573 3.0563609688984634,10.603146345845348 3.005831944017242,10.603146345845348 3.005831944017242,10.603146345845348 3.005831944017242,10.552617320964126 3.005831944017242,10.502088296082901 2.9553029191360167,10.502088296082901 2.904773894254795,10.45155927120168 2.904773894254795,10.401030246320454 2.904773894254795,10.401030246320454 2.904773894254795,10.350501221439233 2.85424486937357,10.299972196558008 2.8037158444923485,10.299972196558008 2.8037158444923485,10.249443171676786 2.8037158444923485,10.198914146795564 2.8037158444923485,10.198914146795564 2.7531868196111233,10.198914146795564 2.7531868196111233,10.14838512191434 2.7531868196111233,10.097856097033118 2.7026577947299018,10.097856097033118 2.7026577947299018,10.047327072151893 2.7026577947299018,10.047327072151893 2.7026577947299018,9.996798047270671 2.6521287698486766,9.996798047270671 2.6521287698486766,9.996798047270671 2.6521287698486766,9.946269022389446 2.601599744967455,9.895739997508224 2.601599744967455,9.895739997508224 2.601599744967455,9.845210972627 2.601599744967455,9.794681947745778 2.55107072008623,9.794681947745778 2.55107072008623,9.794681947745778 2.55107072008623,9.744152922864552 2.5005416952050084,9.744152922864552 2.5005416952050084,9.693623897983331 2.5005416952050084,9.693623897983331 2.5005416952050084,9.643094873102106 2.5005416952050084,9.592565848220884 2.5005416952050084,9.592565848220884 2.5005416952050084,9.542036823339659 2.450012670323787,9.491507798458438 2.3994836454425617,9.491507798458438 2.3994836454425617,9.440978773577216 2.3994836454425617,9.39044974869599 2.3994836454425617,9.39044974869599 2.3994836454425617,9.33992072381477 2.34895462056134,9.289391698933544 2.34895462056134,9.289391698933544 2.298425595680115,9.238862674052323 2.298425595680115,9.188333649171097 2.298425595680115,9.188333649171097 2.298425595680115,9.137804624289876 2.2478965707988934,9.137804624289876 2.2478965707988934,9.08727559940865 2.1973675459176683,9.08727559940865 2.1973675459176683,9.03674657452743 2.1973675459176683,8.986217549646204 2.1468385210364467,8.986217549646204 2.1468385210364467,8.935688524764982 2.0963094961552216,8.885159499883757 2.0963094961552216,8.885159499883757 2.0963094961552216,8.834630475002536 2.0963094961552216,8.834630475002536 2.0963094961552216,8.78410145012131 2.0963094961552216,8.78410145012131 2.045780471274,8.733572425240089 1.9952514463927749,8.683043400358867 1.9952514463927749,8.683043400358867 1.9952514463927749,8.683043400358867 1.9952514463927749,8.632514375477642 1.9952514463927749,8.58198535059642 1.9952514463927749,8.58198535059642 1.9447224215115533,8.58198535059642 1.9447224215115533,8.531456325715196 1.894193396630328,8.480927300833974 1.894193396630328,8.480927300833974 1.894193396630328,8.480927300833974 1.894193396630328,8.430398275952749 1.894193396630328,8.379869251071527 1.8436643717491068,8.379869251071527 1.8436643717491068,8.379869251071527 1.7931353468678815,8.329340226190302 1.7931353468678815,8.27881120130908 1.7931353468678815,8.27881120130908 1.7931353468678815,8.228282176427856 1.7426063219866599,8.177753151546634 1.7426063219866599,8.177753151546634 1.7426063219866599,8.127224126665409 1.7426063219866599,8.076695101784187 1.6920772971054383,8.076695101784187 1.6920772971054383,8.076695101784187 1.6920772971054383,8.026166076902962 1.6920772971054383,7.97563705202174 1.6920772971054383,7.97563705202174 1.641548272224213,7.97563705202174 1.641548272224213,7.925108027140519 1.641548272224213,7.874579002259293 1.641548272224213,7.824049977378072 1.5910192473429916,7.824049977378072 1.5910192473429916,7.773520952496848 1.5910192473429916,7.773520952496848 1.5910192473429916,7.722991927615625 1.5910192473429916,7.6724629027344005 1.5910192473429916,7.6724629027344005 1.5404902224617665,7.6724629027344005 1.5404902224617665,7.62193387785318 1.5404902224617665,7.571404852971954 1.5404902224617665,7.571404852971954 1.489961197580545,7.520875828090733 1.489961197580545,7.470346803209507 1.489961197580545,7.470346803209507 1.489961197580545,7.4198177783282855 1.489961197580545,7.36928875344706 1.489961197580545,7.36928875344706 1.4394321726993198,7.36928875344706 1.4394321726993198,7.318759728565839 1.4394321726993198,7.268230703684614 1.3889031478180982,7.268230703684614 1.3889031478180982,7.217701678803392 1.3889031478180982,7.16717265392217 1.3889031478180982,7.16717265392217 1.3889031478180982,7.116643629040945 1.3889031478180982,7.116643629040945 1.3889031478180982,7.066114604159723 1.3889031478180982,7.066114604159723 1.3889031478180982,7.015585579278499 1.3889031478180982,6.965056554397275 1.338374122936873,6.965056554397275 1.338374122936873,6.965056554397275 1.338374122936873,6.914527529516051 1.2878450980556515,6.863998504634829 1.2878450980556515,6.863998504634829 1.2878450980556515,6.813469479753604 1.2878450980556515,6.762940454872384 1.2878450980556515,6.762940454872384 1.2878450980556515,6.71241142999116 1.2878450980556515,6.661882405109936 1.2878450980556515,6.661882405109936 1.2878450980556515,6.611353380228714 1.2878450980556515,6.560824355347489 1.2878450980556515,6.560824355347489 1.2878450980556515,6.510295330466267 1.2878450980556515,6.459766305585044 1.2878450980556515,6.459766305585044 1.2878450980556515,6.40923728070382 1.2878450980556515,6.358708255822597 1.2878450980556515,6.358708255822597 1.2878450980556515,6.308179230941374 1.2878450980556515,6.25765020606015 1.2878450980556515,6.25765020606015 1.2878450980556515,6.207121181178927 1.2878450980556515,6.207121181178927 1.2878450980556515,6.1565921562977035 1.2878450980556515,6.1565921562977035 1.2878450980556515,6.10606313141648 1.2878450980556515,6.055534106535257 1.2878450980556515,6.055534106535257 1.2878450980556515,6.005005081654035 1.2878450980556515,5.954476056772812 1.2878450980556515,5.9039470318915885 1.2373160731744264,5.853418007010365 1.2373160731744264,5.853418007010365 1.2373160731744264,5.802888982129142 1.2373160731744264,5.7523599572479185 1.2373160731744264,5.7523599572479185 1.2373160731744264,5.701830932366695 1.2373160731744264,5.651301907485472 1.2373160731744264,5.600772882604248 1.2373160731744264,5.550243857723025 1.1867870482932048,5.550243857723025 1.1867870482932048,5.550243857723025 1.1867870482932048,5.499714832841802 1.1867870482932048,5.449185807960578 1.1867870482932048,5.449185807960578 1.1867870482932048,5.449185807960578 1.1867870482932048,5.398656783079355 1.1867870482932048,5.348127758198132 1.1867870482932048,5.348127758198132 1.1867870482932048,5.297598733316908 1.1867870482932048,5.247069708435687 1.1867870482932048,5.196540683554463 1.1867870482932048,5.14601165867324 1.1362580234119797,5.14601165867324 1.1362580234119797,5.14601165867324 1.1362580234119797,5.095482633792017 1.1362580234119797,5.044953608910793 1.1362580234119797,5.044953608910793 1.1362580234119797,4.99442458402957 1.1362580234119797,4.943895559148347 1.1362580234119797,4.943895559148347 1.1362580234119797,4.893366534267123 1.1362580234119797,4.8428375093859 1.1362580234119797,4.8428375093859 1.1362580234119797,4.792308484504677 1.1362580234119797,4.741779459623453 1.1362580234119797,4.741779459623453 1.085728998530758,4.741779459623453 1.085728998530758,4.741779459623453 1.085728998530758,4.792308484504677 1.085728998530758,4.741779459623453 1.085728998530758,4.741779459623453 1.085728998530758,4.69125043474223 1.085728998530758,4.640721409861007 1.085728998530758,4.640721409861007 1.085728998530758,4.590192384979783 1.085728998530758,4.53966336009856 1.085728998530758,4.53966336009856 1.085728998530758,4.489134335217338 1.085728998530758,4.438605310336115 1.1362580234119797,4.438605310336115 1.1362580234119797,4.438605310336115 1.1362580234119797,4.388076285454892 1.1362580234119797,4.337547260573668 1.1867870482932048,4.337547260573668 1.1867870482932048,4.337547260573668 1.1867870482932048,4.337547260573668 1.1867870482932048,4.287018235692445 1.1867870482932048,4.2364892108112215 1.1867870482932048,4.2364892108112215 1.2373160731744264,4.2364892108112215 1.2373160731744264,4.185960185929998 1.2878450980556515,4.135431161048775 1.2878450980556515,4.135431161048775 1.2878450980556515,4.0849021361675515 1.2878450980556515,4.034373111286328 1.2878450980556515,3.983844086405105 1.338374122936873,3.9333150615238814 1.338374122936873,3.9333150615238814 1.3889031478180982,3.8827860366426576 1.3889031478180982,3.8322570117614343 1.3889031478180982,3.8322570117614343 1.3889031478180982,3.781727986880212 1.4394321726993198,3.73119896199899 1.4394321726993198,3.6806699371177665 1.4394321726993198,3.6301409122365427 1.489961197580545,3.6301409122365427 1.489961197580545,3.57961188735532 1.489961197580545,3.529082862474097 1.489961197580545,3.529082862474097 1.5404902224617665,3.478553837592873 1.5404902224617665,3.4280248127116497 1.5404902224617665,3.4280248127116497 1.5910192473429916,3.4280248127116497 1.5910192473429916,3.3774957878304264 1.5910192473429916,3.3774957878304264 1.5910192473429916,3.326966762949203 1.5910192473429916,3.2764377380679797 1.641548272224213,3.2764377380679797 1.641548272224213,3.2259087131867563 1.6920772971054383,3.2259087131867563 1.6920772971054383,3.175379688305533 1.6920772971054383,3.1248506634243096 1.6920772971054383,3.1248506634243096 1.6920772971054383,3.1248506634243096 1.6920772971054383,3.0743216385430863 1.7426063219866599,3.0743216385430863 1.7426063219866599,3.023792613661863 1.7931353468678815,3.023792613661863 1.7931353468678815,2.9732635887806413 1.7931353468678815,2.9732635887806413 1.7931353468678815,2.922734563899418 1.8436643717491068,2.922734563899418 1.8436643717491068,2.922734563899418 1.8436643717491068,2.8722055390181946 1.894193396630328,2.8216765141369713 1.894193396630328,2.8216765141369713 1.9447224215115533,2.8216765141369713 1.9447224215115533,2.7206184643745246 1.9447224215115533,2.7206184643745246 1.9952514463927749,2.6700894394933012 1.9952514463927749,2.6700894394933012 1.9952514463927749,2.619560414612078 2.045780471274,2.5690313897308545 2.0963094961552216,2.5690313897308545 2.0963094961552216,2.518502364849631 2.0963094961552216,2.518502364849631 2.0963094961552216,2.467973339968408 2.1468385210364467,2.4174443150871845 2.1973675459176683,2.4174443150871845 2.1973675459176683,2.4174443150871845 2.1973675459176683,2.366915290205961 2.2478965707988934,2.366915290205961 2.2478965707988934,2.316386265324738 2.298425595680115,2.316386265324738 2.298425595680115,2.316386265324738 2.298425595680115,2.2658572404435144 2.34895462056134,2.2658572404435144 2.3994836454425617,2.215328215562293 2.3994836454425617,2.215328215562293 2.450012670323787,2.215328215562293 2.450012670323787,2.1647991906810695 2.5005416952050084,2.1647991906810695 2.5005416952050084,2.114270165799846 2.55107072008623,2.114270165799846 2.601599744967455,2.114270165799846 2.601599744967455,2.063741140918623 2.6521287698486766,2.0132121160373995 2.6521287698486766,2.0132121160373995 2.7026577947299018,2.0132121160373995 2.7026577947299018,2.0132121160373995 2.7531868196111233,2.0132121160373995 2.7531868196111233,1.9626830911561761 2.8037158444923485,1.9626830911561761 2.8037158444923485,1.9121540662749525 2.8037158444923485,1.9121540662749525 2.8037158444923485,1.9121540662749525 2.85424486937357,1.9121540662749525 2.904773894254795,1.9121540662749525 2.904773894254795,1.8616250413937296 2.904773894254795,1.8616250413937296 2.9553029191360167,1.8616250413937296 3.005831944017242,1.811096016512506 3.005831944017242,1.811096016512506 3.0563609688984634,1.811096016512506 3.1068899937796886,1.811096016512506 3.1068899937796886,1.7605669916312827 3.15741901866091,1.7605669916312827 3.2079480435421353,1.7100379667500591 3.2079480435421353,1.7100379667500591 3.2584770684233573,1.7100379667500591 3.2584770684233573,1.6595089418688362 3.3090060933045784,1.6595089418688362 3.3090060933045784,1.6089799169876127 3.359535118185803,1.6089799169876127 3.410064143067025,1.5584508921063893 3.410064143067025,1.507921867225166 3.4605931679482502,1.507921867225166 3.5111221928294722,1.507921867225166 3.5111221928294722,1.507921867225166 3.561651217710697,1.507921867225166 3.612180242591918,1.4573928423439444 3.612180242591918,1.4573928423439444 3.6627092674731436,1.4573928423439444 3.713238292354365,1.406863817462721 3.713238292354365,1.406863817462721 3.7637673172355908,1.406863817462721 3.814296342116812,1.406863817462721 3.814296342116812,1.406863817462721 3.864825366998037,1.406863817462721 3.9153543918792586,1.406863817462721 3.9153543918792586,1.406863817462721 3.9153543918792586,1.3563347925814977 3.9658834167604837,1.3563347925814977 4.016412441641705,1.3563347925814977 4.016412441641705,1.3058057677002743 4.066941466522927,1.3058057677002743 4.117470491404152,1.3058057677002743 4.117470491404152,1.3058057677002743 4.167999516285374,1.3058057677002743 4.218528541166599,1.3058057677002743 4.218528541166599,1.3058057677002743 4.26905756604782,1.3058057677002743 4.319586590929045,1.3058057677002743 4.319586590929045,1.3058057677002743 4.370115615810267,1.3058057677002743 4.420644640691492,1.3058057677002743 4.420644640691492,1.3058057677002743 4.471173665572714,1.3058057677002743 4.521702690453939,1.255276742819051 4.521702690453939,1.255276742819051 4.57223171533516,1.255276742819051 4.6227607402163855,1.255276742819051 4.6227607402163855,1.255276742819051 4.673289765097607,1.255276742819051 4.723818789978832,1.255276742819051 4.723818789978832,1.2047477179378276 4.723818789978832,1.2047477179378276 4.723818789978832,1.2047477179378276 4.774347814860054,1.2047477179378276 4.824876839741275,1.2047477179378276 4.824876839741275,1.2047477179378276 4.8754058646225005,1.2047477179378276 4.8754058646225005,1.1542186930566043 4.925934889503722,1.1542186930566043 4.925934889503722,1.1542186930566043 4.976463914384947,1.1542186930566043 5.026992939266169,1.1542186930566043 5.026992939266169,1.103689668175381 5.026992939266169,1.103689668175381 5.077521964147394,1.103689668175381 5.1280509890286154,1.103689668175381 5.1280509890286154,1.103689668175381 5.1280509890286154,1.103689668175381 5.178580013909841,1.103689668175381 5.229109038791062,1.103689668175381 5.229109038791062,1.0531606432941576 5.229109038791062,1.0531606432941576 5.279638063672287,1.0531606432941576 5.330167088553509,1.0026316184129342 5.330167088553509,1.0026316184129342 5.380696113434734,1.0026316184129342 5.4312251383159555,1.0026316184129342 5.4312251383159555,1.0026316184129342 5.481754163197181,1.0026316184129342 5.532283188078402,1.0026316184129342 5.532283188078402,1.0026316184129342 5.582812212959624,1.0026316184129342 5.633341237840849,1.0026316184129342 5.633341237840849,1.0026316184129342 5.6838702627220705,1.0026316184129342 5.734399287603296,1.0026316184129342 5.734399287603296,1.0026316184129342 5.784928312484517,1.0026316184129342 5.835457337365742,1.0026316184129342 5.835457337365742,1.0026316184129342 5.885986362246964,1.0026316184129342 5.936515387128189,1.0026316184129342 5.936515387128189,1.0026316184129342 5.987044412009411,1.0026316184129342 6.037573436890636,1.0026316184129342 6.037573436890636,1.0026316184129342 6.088102461771857,1.0026316184129342 6.1386314866530824,1.0026316184129342 6.1386314866530824,1.0026316184129342 6.189160511534304,1.0026316184129342 6.239689536415529,1.0026316184129342 6.239689536415529,1.0026316184129342 6.290218561296751,1.0026316184129342 6.340747586177972,1.0026316184129342 6.391276611059197,1.0026316184129342 6.441805635940419,1.0026316184129342 6.492334660821644,1.0026316184129342 6.542863685702865,1.0026316184129342 6.542863685702865,1.0026316184129342 6.593392710584091,1.0026316184129342 6.6439217354653115,1.0026316184129342 6.6944507603465375,1.0026316184129342 6.744979785227759,1.0026316184129342 6.744979785227759,1.0026316184129342 6.795508810108984,1.0026316184129342 6.846037834990206,1.0026316184129342 6.846037834990206,1.0026316184129342 6.896566859871431,1.0026316184129342 6.9470958847526525,1.0026316184129342 6.9470958847526525,1.0026316184129342 6.9976249096338785,1.0026316184129342 6.9976249096338785,0.9521025935317108 6.9976249096338785,0.9015735686504875 7.048153934515099,0.9015735686504875 7.048153934515099,0.9015735686504875 7.098682959396321,0.9015735686504875 7.149211984277546,0.9015735686504875 7.149211984277546,0.9015735686504875 7.1997410091587675,0.9015735686504875 7.2502700340399935,0.9015735686504875 7.2502700340399935,0.9015735686504875 7.300799058921214,0.9015735686504875 7.35132808380244,0.9015735686504875 7.35132808380244,0.9015735686504875 7.401857108683661,0.9015735686504875 7.452386133564885,0.9015735686504875 7.5029151584461085,0.9015735686504875 7.553444183327333,0.9521025935317108 7.553444183327333,0.9521025935317108 7.603973208208555,0.9521025935317108 7.654502233089779,0.9521025935317108 7.654502233089779,0.9521025935317108 7.705031257971,0.9521025935317108 7.755560282852226,0.9521025935317108 7.755560282852226,1.0026316184129342 7.806089307733448,1.0026316184129342 7.856618332614668,1.0026316184129342 7.856618332614668,1.0026316184129342 7.907147357495894,1.0026316184129342 7.907147357495894,1.0026316184129342 7.957676382377115,1.0026316184129342 7.957676382377115,1.0026316184129342 8.008205407258341,1.0026316184129342 8.058734432139563,1.0026316184129342 8.058734432139563,1.0026316184129342 8.058734432139563,1.0531606432941576 8.109263457020788,1.0531606432941576 8.109263457020788,1.103689668175381 8.15979248190201,1.103689668175381 8.15979248190201,1.103689668175381 8.15979248190201,1.103689668175381 8.210321506783234,1.103689668175381 8.260850531664456,1.103689668175381 8.260850531664456,1.1542186930566043 8.260850531664456,1.1542186930566043 8.311379556545681,1.1542186930566043 8.311379556545681,1.2047477179378276 8.361908581426903,1.2047477179378276 8.361908581426903,1.2047477179378276 8.361908581426903,1.2047477179378276 8.412437606308128,1.2047477179378276 8.412437606308128,1.255276742819051 8.46296663118935,1.255276742819051 8.46296663118935,1.3058057677002743 8.46296663118935,1.3058057677002743 8.513495656070575,1.3058057677002743 8.513495656070575,1.3058057677002743 8.513495656070575,1.3563347925814977 8.46296663118935,1.3563347925814977 8.412437606308128,1.3563347925814977 8.361908581426903,1.3563347925814977 8.311379556545681,1.3563347925814977 8.210321506783234,1.3563347925814977 8.109263457020788,1.3563347925814977 8.058734432139563,1.3563347925814977 8.008205407258341,1.3563347925814977 7.957676382377115,1.3563347925814977 7.957676382377115,1.3563347925814977 7.907147357495894,1.3563347925814977 7.856618332614668,1.3563347925814977 7.856618332614668,1.3563347925814977 7.806089307733448,1.3563347925814977 7.755560282852226,1.3563347925814977 7.755560282852226,1.3563347925814977 7.705031257971,1.3563347925814977 7.654502233089779,1.3563347925814977 7.654502233089779,1.3563347925814977 7.603973208208555,1.3563347925814977 7.553444183327333,1.3563347925814977 7.553444183327333,1.3563347925814977 7.5029151584461085,1.3563347925814977 7.452386133564885,1.3563347925814977 7.401857108683661,1.3563347925814977 7.35132808380244,1.3563347925814977 7.300799058921214,1.3563347925814977 7.2502700340399935,1.3563347925814977 7.1997410091587675,1.3563347925814977 7.149211984277546,1.406863817462721 7.098682959396321,1.406863817462721 7.048153934515099,1.406863817462721 6.9976249096338785,1.406863817462721 6.9470958847526525,1.406863817462721 6.9470958847526525,1.406863817462721 6.846037834990206,1.406863817462721 6.846037834990206,1.4573928423439444 6.795508810108984,1.4573928423439444 6.795508810108984,1.507921867225166 6.744979785227759,1.507921867225166 6.744979785227759,1.507921867225166 6.744979785227759,1.5584508921063893 6.744979785227759,1.5584508921063893 6.744979785227759,1.6089799169876127 6.744979785227759,1.6089799169876127 6.744979785227759,1.6595089418688362 6.744979785227759,1.6595089418688362 6.795508810108984,1.6595089418688362 6.846037834990206,1.6595089418688362 6.846037834990206,1.6595089418688362 6.896566859871431,1.6595089418688362 6.9470958847526525,1.6595089418688362 6.9470958847526525,1.6089799169876127 7.048153934515099,1.6089799169876127 7.048153934515099,1.6089799169876127 7.098682959396321,1.6089799169876127 7.149211984277546,1.6089799169876127 7.1997410091587675,1.6089799169876127 7.2502700340399935,1.6089799169876127 7.2502700340399935,1.6089799169876127 7.300799058921214,1.6089799169876127 7.35132808380244,1.6089799169876127 7.35132808380244,1.6089799169876127 7.452386133564885,1.6089799169876127 7.452386133564885,1.6089799169876127 7.5029151584461085,1.6089799169876127 7.553444183327333,1.6089799169876127 7.553444183327333,1.6089799169876127 7.603973208208555,1.6089799169876127 7.654502233089779,1.6089799169876127 7.654502233089779,1.6089799169876127 7.705031257971,1.6089799169876127 7.755560282852226,1.6089799169876127 7.755560282852226,1.6089799169876127 7.806089307733448,1.6089799169876127 7.856618332614668,1.6089799169876127 7.856618332614668,1.6089799169876127 7.907147357495894,1.6089799169876127 7.957676382377115,1.6089799169876127 7.957676382377115,1.6089799169876127 8.008205407258341,1.6089799169876127 8.058734432139563,1.6089799169876127 8.058734432139563,1.6089799169876127 8.109263457020788,1.6089799169876127 8.15979248190201,1.6089799169876127 8.15979248190201,1.6595089418688362 8.15979248190201,1.6595089418688362 8.210321506783234,1.7100379667500591 8.260850531664456,1.7100379667500591 8.260850531664456,1.7100379667500591 8.311379556545681,1.7100379667500591 8.361908581426903,1.7100379667500591 8.361908581426903,1.7100379667500591 8.412437606308128,1.7100379667500591 8.46296663118935,1.7605669916312827 8.46296663118935,1.811096016512506 8.46296663118935,1.811096016512506 8.513495656070575,1.811096016512506 8.564024680951796,1.811096016512506 8.564024680951796,1.811096016512506 8.614553705833018,1.811096016512506 8.665082730714243,1.811096016512506 8.665082730714243,1.811096016512506 8.715611755595464,1.811096016512506 8.76614078047669,1.811096016512506 8.76614078047669,1.8616250413937296 8.816669805357911,1.8616250413937296 8.867198830239136,1.8616250413937296 8.867198830239136,1.8616250413937296 8.917727855120358,1.8616250413937296 8.917727855120358,1.9121540662749525 8.968256880001583,1.9121540662749525 8.968256880001583,1.9121540662749525 9.018785904882805,1.9121540662749525 9.06931492976403,1.9121540662749525 9.06931492976403,1.9121540662749525 9.119843954645251,1.9121540662749525 9.170372979526476,1.9121540662749525 9.170372979526476,1.9121540662749525 9.170372979526476,1.9121540662749525 9.170372979526476,1.9626830911561761 9.220902004407698,1.9626830911561761 9.271431029288923,2.0132121160373995 9.271431029288923,2.0132121160373995 9.271431029288923,2.0132121160373995 9.271431029288923,2.063741140918623 9.321960054170145,2.063741140918623 9.321960054170145,2.114270165799846 9.372489079051366,2.114270165799846 9.372489079051366,2.114270165799846 9.372489079051366,2.114270165799846 9.372489079051366,2.1647991906810695 9.372489079051366,2.215328215562293 9.423018103932591,2.215328215562293 9.473547128813813,2.215328215562293 9.473547128813813,2.215328215562293 9.473547128813813,2.2658572404435144 9.524076153695038,2.2658572404435144 9.57460517857626,2.316386265324738 9.57460517857626,2.316386265324738 9.57460517857626,2.316386265324738 9.625134203457485,2.366915290205961 9.675663228338706,2.366915290205961 9.675663228338706,2.4174443150871845 9.675663228338706,2.4174443150871845 9.675663228338706,2.467973339968408 9.726192253219931,2.467973339968408 9.776721278101153,2.518502364849631 9.776721278101153,2.518502364849631 9.776721278101153,2.518502364849631 9.827250302982378,2.518502364849631 9.8777793278636,2.5690313897308545 9.8777793278636,2.619560414612078 9.8777793278636,2.619560414612078 9.8777793278636,2.619560414612078 9.928308352744825,2.6700894394933012 9.978837377626046,2.6700894394933012 9.978837377626046,2.7206184643745246 9.978837377626046,2.7206184643745246 10.029366402507272,2.7206184643745246 10.029366402507272,2.771147489255748 10.079895427388493,2.771147489255748 10.079895427388493,2.771147489255748 10.079895427388493,2.8216765141369713 10.130424452269715,2.8216765141369713 10.130424452269715,2.8216765141369713 10.18095347715094,2.8216765141369713 10.18095347715094,2.8722055390181946 10.18095347715094,2.8722055390181946 10.18095347715094,2.922734563899418 10.231482502032161,2.922734563899418 10.282011526913386,2.922734563899418 10.282011526913386,2.922734563899418 10.332540551794608,2.9732635887806413 10.383069576675833,2.9732635887806413 10.383069576675833,3.023792613661863 10.383069576675833,3.023792613661863 10.383069576675833,3.023792613661863 10.433598601557055,3.023792613661863 10.433598601557055,3.0743216385430863 10.48412762643828,3.0743216385430863 10.48412762643828,3.1248506634243096 10.534656651319501,3.1248506634243096 10.534656651319501,3.175379688305533 10.534656651319501,3.2259087131867563 10.585185676200727,3.2259087131867563 10.585185676200727,3.2259087131867563 10.585185676200727,3.2259087131867563 10.635714701081948,3.2764377380679797 10.635714701081948,3.326966762949203 10.635714701081948,3.326966762949203 10.686243725963173,3.326966762949203 10.686243725963173,3.3774957878304264 10.686243725963173,3.3774957878304264 10.686243725963173,3.4280248127116497 10.736772750844395,3.4280248127116497 10.78730177572562,3.478553837592873 10.78730177572562,3.529082862474097 10.78730177572562,3.529082862474097 10.78730177572562,3.529082862474097 10.78730177572562,3.57961188735532 10.837830800606842,3.57961188735532 10.837830800606842,3.6301409122365427 10.888359825488063,3.6301409122365427 10.888359825488063,3.6301409122365427 10.888359825488063,3.6806699371177665 10.888359825488063,3.73119896199899 10.938888850369288,3.73119896199899 10.938888850369288,3.73119896199899 10.98941787525051,3.781727986880212 10.98941787525051,3.8322570117614343 10.98941787525051,3.8322570117614343 11.039946900131735,3.8827860366426576 11.039946900131735,3.9333150615238814 11.090475925012957,3.9333150615238814 11.090475925012957,3.9333150615238814 11.090475925012957,3.9333150615238814 11.090475925012957,3.983844086405105 11.090475925012957,4.034373111286328 11.141004949894182,4.034373111286328 11.141004949894182,4.034373111286328 11.191533974775403,4.034373111286328 11.191533974775403,4.0849021361675515 11.191533974775403,4.135431161048775 11.242062999656628,4.135431161048775 11.242062999656628,4.185960185929998 11.29259202453785,4.185960185929998 11.29259202453785,4.2364892108112215 11.343121049419075,4.2364892108112215 11.343121049419075,4.2364892108112215 11.393650074300297,4.287018235692445 11.393650074300297,4.337547260573668 11.393650074300297,4.337547260573668 11.393650074300297,4.337547260573668 11.444179099181522,4.337547260573668 11.494708124062743,4.337547260573668 11.494708124062743,4.388076285454892 11.494708124062743,4.388076285454892 11.494708124062743,4.438605310336115 11.545237148943968,4.438605310336115 11.545237148943968,4.489134335217338 11.59576617382519,4.489134335217338 11.59576617382519,4.53966336009856 11.59576617382519,4.53966336009856 11.59576617382519,4.53966336009856 11.59576617382519,4.590192384979783 11.646295198706412,4.590192384979783 11.646295198706412,4.640721409861007 11.696824223587637,4.640721409861007 11.696824223587637,4.640721409861007 11.696824223587637,4.69125043474223 11.696824223587637,4.69125043474223 11.696824223587637,4.741779459623453 11.747353248468858,4.741779459623453 11.747353248468858,4.741779459623453 11.797882273350083,4.741779459623453 11.797882273350083,4.792308484504677 11.797882273350083,4.792308484504677 11.848411298231305,4.792308484504677 " style="color: rgb(0, 0, 0);"/></g></svg>